<?xml version="1.0" encoding="UTF-8"?>
<svg id="Layer_2" data-name="Layer 2" xmlns="http://www.w3.org/2000/svg" viewBox="0 0 200 200">
  <defs>
    <style>
      .cls-1 {
        fill: #d75035;
      }

      .cls-1, .cls-2, .cls-3 {
        stroke-width: 0px;
      }

      .cls-4 {
        font-family: OptimaLTPro-Bold, 'Optima LT Pro';
        font-size: 24px;
        font-weight: 700;
      }

      .cls-4, .cls-2 {
        fill: #f2e9d0;
      }

      .cls-3 {
        fill: #803020;
      }
    </style>
  </defs>
  <g id="Circles">
    <g>
      <circle class="cls-1" cx="100" cy="100" r="99"/>
      <path class="cls-3" d="M100,2c54.04,0,98,43.96,98,98s-43.96,98-98,98S2,154.04,2,100,45.96,2,100,2M100,0C44.77,0,0,44.77,0,100s44.77,100,100,100,100-44.77,100-100S155.23,0,100,0h0Z"/>
    </g>
  </g>
  <g id="Chili">
    <g>
      <path class="cls-3" d="M43.5,113.5c6,4,9.23,3.16,16,3s13.2-.49,19.05-3.9c15.84-9.22,27.32-24.56,35.63-40.9,1.62-3.19,3.2-6.52,5.82-8.96,5.14-4.79,14.03-4.79,19.17,0,2.33,2.17,3.84,5.05,5.31,7.87,2.03,3.9,4.08,7.83,5.25,12.07s1.44,8.85-.1,12.97c-1.76,4.72-5.63,8.3-9.46,11.57-9.23,7.9-18.98,15.18-28.82,22.3-6.84,4.95-8.82,6.37-16.86,8.95-2.76.88-10.11,2.11-13,2-5.36-.21-10.9.11-15.49-2.65-3.99-2.4-7.91-5-11.19-8.32-2.28-2.31-4.22-4.94-6.14-7.56-2.7-3.68-2.48-4.79-5.18-8.47"/>
      <path class="cls-2" d="M42.74,114.8c3.48,2.28,7.09,3.42,11.26,3.38,4.75-.04,9.61-.12,14.32-.75,4.98-.67,9.34-2.39,13.55-5.1,3.97-2.55,7.68-5.5,11.11-8.72,6.83-6.42,12.56-13.98,17.41-21.98,2.46-4.06,4.52-8.32,6.8-12.48s4.97-7.2,9.55-8.19c3.8-.83,8.15.03,11.11,2.64,1.87,1.65,3.18,3.79,4.36,5.96s2.43,4.58,3.54,6.92c2.22,4.71,3.97,9.91,3.33,15.18s-3.85,9-7.5,12.35c-8.1,7.45-17.08,14.06-25.94,20.57-3.75,2.75-7.46,5.65-11.41,8.1-3.2,1.98-6.72,3.35-10.32,4.43-3.36,1.01-7,1.57-10.5,1.83-2.04.15-4.12,0-6.16-.06-2.44-.08-4.89-.25-7.24-.93s-4.5-2.12-6.59-3.48-4.22-2.91-6.13-4.64c-2-1.81-3.75-3.86-5.38-6-1.45-1.91-2.91-3.82-4.06-5.93-.96-1.77-1.88-3.51-3.07-5.15-1.12-1.55-3.73-.05-2.59,1.51,1.25,1.72,2.19,3.56,3.21,5.41,1.24,2.26,2.85,4.31,4.43,6.34,3.32,4.3,7.18,7.81,11.7,10.81,2.18,1.44,4.4,2.92,6.89,3.78s5.01,1.1,7.55,1.23c4.18.21,8.16.17,12.3-.48s7.83-1.65,11.61-3.16c3.47-1.39,6.57-3.29,9.6-5.45,9.31-6.63,18.5-13.47,27.33-20.73,4.03-3.32,8.28-6.62,11.44-10.82s4.4-9.35,3.76-14.59-3.01-10.46-5.51-15.31c-2.22-4.29-4.47-8.92-8.78-11.47-3.65-2.16-8.2-2.69-12.29-1.64-4.6,1.17-7.88,4.36-10.23,8.37-2.5,4.27-4.55,8.79-7.1,13.04s-5.28,8.3-8.34,12.15c-6.05,7.62-13.23,14.42-21.64,19.37-4.57,2.69-9.7,3.52-14.93,3.77-2.51.12-5.03.17-7.54.26-1.85.07-3.74.12-5.56-.27-2.14-.46-4.04-1.47-5.86-2.66-1.62-1.06-3.12,1.53-1.51,2.59h0Z"/>
    </g>
    <g>
      <path class="cls-3" d="M115.5,64.5c3.96-.51,6.06-.69,9,2s3,4,3,7c4,0,6.76.5,9,2s3.66,2.33,4,5-.57,4.34-1,7c1.42-1.34,4.76,1.5,6,3s1.71,5.07,2,7c.48,3.23.39,4.44.87,7.67,2.76-2.46,3.05-5.14,4.13-8.67,1.17-3.83,1.41-8.02,1-12s-.74-6.68-4-9c3.52-1.13,5.96-7.45,7-11,1.69-5.78,2.11-11.78-.46-17.23-2.71-5.73-8.87-9.34-15.16-10.07-2.88-.33-6.06-.04-8.21,1.9s-2.52,5.92-.11,7.54c3.18-3.28,10.94-3.15,13.94-.15,2.54,2.54,4.88,7.52,4,11-.88,3.46-9.37,2.82-11,6-2.9-4.99-9.58-6.61-15-5-3.55,1.06-7,4-9,6"/>
      <path class="cls-2" d="M115.5,66c2.71-.35,5.24-.68,7.49,1.17,1,.82,2.13,1.84,2.64,3.06.43,1.02.37,2.19.37,3.28,0,.81.69,1.5,1.5,1.5,1.82,0,3.66.07,5.42.54,1.55.41,2.85,1.21,4.14,2.15,3.28,2.36,1.56,6.13.99,9.41-.27,1.53,1.31,2.41,2.51,1.46-.19.15-.05.09.2.15.33.08.63.27.92.44.69.41,1.3.92,1.88,1.47,1.12,1.08,1.55,2.28,1.89,3.79.83,3.67.93,7.45,1.47,11.16.17,1.19,1.77,1.34,2.51.66,2.1-1.95,3.12-4.39,3.88-7.1.9-3.22,1.71-6.35,1.85-9.7.13-3-.07-6.19-.75-9.12-.6-2.59-2.03-4.54-4.15-6.1l-.36,2.74c4.12-1.47,6.12-6.37,7.45-10.18,1.79-5.13,2.69-10.79,1.44-16.15s-4.54-9.5-9.17-12.12c-4.15-2.35-9.73-3.8-14.43-2.42-2.61.77-4.83,2.59-5.54,5.29-.66,2.5.06,5.03,2.15,6.58.53.39,1.38.2,1.82-.23,1.78-1.74,4.55-2.12,6.93-1.96,2.54.17,4.58,1.12,6.07,3.2.9,1.26,1.63,2.67,2.1,4.16.36,1.14.86,3.01.28,4.17-.63,1.28-3.37,1.67-4.64,2.02-2.21.61-4.94,1.28-6.15,3.44h2.59c-2.57-4.27-7.44-6.41-12.33-6.34-5.56.08-10.2,3.25-14.03,7.04-1.37,1.36.75,3.48,2.12,2.12,3.16-3.13,6.97-5.98,11.57-6.15,3.93-.15,7.98,1.38,10.07,4.85.57.95,2.03,1,2.59,0,.45-.8,1.47-1.17,2.32-1.46,1.22-.42,2.49-.71,3.72-1.08,2.35-.71,4.8-1.76,5.23-4.45.57-3.59-1.05-7.44-3.18-10.26-1.95-2.59-4.51-3.84-7.71-4.2-3.36-.37-7.2.34-9.69,2.78l1.82-.23c-1.22-.9-1.07-2.8-.48-4.01.86-1.77,2.95-2.52,4.8-2.71,3.94-.4,8.12.9,11.42,3.01,3.53,2.26,5.9,5.68,6.85,9.76,1.04,4.5.27,9.23-1.12,13.58-.58,1.83-1.29,3.62-2.22,5.3-.78,1.41-1.84,3.18-3.45,3.76-1.28.46-1.41,1.97-.36,2.74,1.75,1.29,2.55,3,2.93,5.1.47,2.61.61,5.34.46,7.99-.16,2.81-.87,5.41-1.62,8.1-.66,2.35-1.37,4.43-3.21,6.13l2.51.66c-.65-4.52-.44-9.54-2.31-13.8-.76-1.71-2.28-3.04-3.79-4.08-1.62-1.12-3.59-1.79-5.27-.46l2.51,1.46c.42-2.39,1.32-4.71,1.08-7.17-.2-2.05-1.01-3.73-2.63-5.02-1.52-1.21-3.19-2.27-5.04-2.87-2.19-.71-4.57-.83-6.86-.84l1.5,1.5c0-1.43,0-2.9-.54-4.25-.67-1.68-1.98-3.06-3.34-4.2-1.27-1.06-2.69-1.91-4.33-2.19-1.76-.31-3.52-.08-5.28.15-1.89.24-1.91,3.24,0,3h0Z"/>
    </g>
    <text class="cls-4" transform="translate(66.11 170.35)"><tspan x="0" y="0">CHILI</tspan></text>
  </g>
</svg>