<?xml version="1.0" encoding="UTF-8"?>
<svg id="Layer_2" data-name="Layer 2" xmlns="http://www.w3.org/2000/svg" viewBox="0 0 200 200">
  <defs>
    <style>
      .cls-1 {
        fill: #d75035;
      }

      .cls-1, .cls-2, .cls-3 {
        stroke-width: 0px;
      }

      .cls-2 {
        fill: #f2e9d0;
      }

      .cls-3, .cls-4 {
        fill: #803020;
      }

      .cls-4 {
        stroke: #f2e9d0;
        stroke-miterlimit: 10;
        stroke-width: 5px;
      }
    </style>
  </defs>
  <g id="Circles">
    <g>
      <circle class="cls-1" cx="100" cy="100" r="99"/>
      <path class="cls-3" d="M100,2c54.04,0,98,43.96,98,98s-43.96,98-98,98S2,154.04,2,100,45.96,2,100,2M100,0C44.77,0,0,44.77,0,100s44.77,100,100,100,100-44.77,100-100S155.23,0,100,0h0Z"/>
    </g>
  </g>
  <g id="Kalender">
    <rect class="cls-4" x="37" y="50" width="125" height="100" rx="5.48" ry="5.48"/>
    <path class="cls-2" d="M54.38,69.5c.56,15.94.97,31.89,1.03,47.84.02,4.72,0,9.44-.03,14.16-.01,1.45,2.24,1.45,2.25,0,.12-15.95-.08-31.9-.54-47.84-.14-4.72-.29-9.44-.46-14.16-.05-1.44-2.3-1.45-2.25,0h0Z"/>
    <path class="cls-2" d="M77.38,69.5c-.58,16.04-.41,32.09.31,48.13.21,4.64.45,9.27.73,13.91.08,1.44,2.34,1.45,2.25,0-.94-16.02-1.54-32.06-1.36-48.11.05-4.64.16-9.28.33-13.92.05-1.45-2.2-1.45-2.25,0h0Z"/>
    <path class="cls-2" d="M98.09,69.84c.04,20.55-.28,41.11.28,61.66.04,1.44,2.29,1.45,2.25,0-.57-20.55-.24-41.1-.28-61.66,0-1.45-2.25-1.45-2.25,0h0Z"/>
    <path class="cls-2" d="M119.47,69.84c-.04,15.87.4,31.73.7,47.6.09,4.69.16,9.37.21,14.06.01,1.45,2.26,1.45,2.25,0-.16-15.87-.66-31.73-.84-47.6-.05-4.69-.08-9.37-.06-14.06,0-1.45-2.25-1.45-2.25,0h0Z"/>
    <path class="cls-2" d="M141.44,70.41c-.09,15.79.41,31.56,1.2,47.33.23,4.59.48,9.17.74,13.76.08,1.44,2.33,1.45,2.25,0-.89-15.76-1.67-31.53-1.89-47.31-.06-4.59-.08-9.19-.05-13.78,0-1.45-2.24-1.45-2.25,0h0Z"/>
    <path class="cls-2" d="M49.5,84.62c4.87.23,9.73.59,14.6.87,3.5.21,6.95.06,10.45-.17,4.01-.26,8.02-.61,12.03-.69s8.32-.01,12.48-.01c11.16,0,22.32.43,33.48.55,5.66.06,11.42.32,17.07-.14,1.43-.12,1.45-2.37,0-2.25-4.85.39-9.79.2-14.65.16-6.98-.06-13.97-.18-20.95-.31-12.14-.23-24.28-.57-36.41.24-3.96.27-7.97.66-11.94.46-5.39-.28-10.77-.71-16.16-.96-1.45-.07-1.44,2.18,0,2.25h0Z"/>
    <path class="cls-2" d="M49.4,101.76c26.23.03,52.45.07,78.68.1,7.47,0,14.94.02,22.41.03,1.45,0,1.45-2.25,0-2.25-26.23-.03-52.45-.07-78.68-.1-7.47,0-14.94-.02-22.41-.03-1.45,0-1.45,2.25,0,2.25h0Z"/>
    <path class="cls-2" d="M49.5,117.62h36.44c11.94,0,23.92-.26,35.86.02,9.23.21,18.46.97,27.7.98,1.45,0,1.45-2.25,0-2.25-8.47-.01-16.95-.63-25.42-.91-4.02-.14-8.05-.09-12.07-.09h-62.51c-1.45,0-1.45,2.25,0,2.25h0Z"/>
    <path class="cls-2" d="M109.28,71.2c-.13,2.57-.15,5.15-.09,7.73.03.96,1.53.97,1.5,0-.07-2.58-.04-5.15.09-7.73.05-.96-1.45-.96-1.5,0h0Z"/>
    <path class="cls-2" d="M82.7,106.04l-.28,5.96c-.02.41.36.75.75.75.42,0,.73-.34.75-.75l.28-5.96c.02-.41-.36-.75-.75-.75-.42,0-.73.34-.75.75h0Z"/>
    <path class="cls-2" d="M89.45,107.1c.28-.49.91-1.75,1.68-1.4s.36,1.58.09,2.11c-.8,1.61-2.28,2.76-3.1,4.36-.31.6.2,1.23.85,1.1,1.3-.26,2.66-.31,3.97-.11.4.06.81-.1.92-.52.1-.35-.12-.86-.52-.92-1.6-.24-3.18-.21-4.77.11l.85,1.1c1.03-2.02,3.23-3.45,3.6-5.8.2-1.28-.41-2.76-1.84-2.94s-2.39,1.04-3.02,2.16c-.47.84.82,1.6,1.3.76h0Z"/>
    <path class="cls-2" d="M128.57,122.55c-.03-.05.04-.2.14-.25.21-.1.5.1.62.26.46.6.19,1.59-.07,2.21-.63,1.49-1.89,2.64-2.74,4-.25.4-.02.99.45,1.1,1.44.33,2.91.49,4.39.45.96-.02.97-1.52,0-1.5-1.35.03-2.68-.09-3.99-.4l.45,1.1c1.21-1.93,3.19-3.6,3.25-6.04.03-1.29-.76-2.64-2.16-2.71-1.31-.06-2.24,1.36-1.62,2.52.45.85,1.75.1,1.3-.76h0Z"/>
    <path class="cls-2" d="M140.15,125.12c-.65-1.08-2.02-1.85-3.24-2.05-.67-.11-1.38-.1-1.96.29-.66.45-1.12,1.07-1.41,1.81-.54,1.41-.12,3.08,1.06,4.02s2.92,1.28,4.13.26c.56-.47.91-1.17,1.15-1.84s.37-1.4.36-2.11c0-.41-.34-.75-.75-.75s-.75.34-.75.75c0,.22-.01.44-.04.67.02-.18,0,.03-.01.06-.01.07-.02.13-.04.2-.03.13-.06.27-.1.4s-.08.26-.13.39c-.02.04-.03.09-.05.13-.07.21.06-.13-.03.07-.11.24-.24.47-.39.69.09-.13-.08.09-.12.13-.04.04-.09.08-.13.12-.13.13.12-.07-.03.03-.08.05-.16.1-.24.14.17-.08.01,0-.03,0-.03,0-.28.05-.13.03-.12.01-.24.02-.36.02-.07,0-.15,0-.22-.01.16.02-.08-.02-.09-.02-.12-.02-.24-.06-.35-.1,0,0-.23-.09-.09-.03-.08-.03-.16-.07-.23-.11-.12-.06-.23-.14-.34-.22.11.08-.07-.06-.08-.07-.04-.03-.07-.07-.11-.1-.05-.05-.1-.1-.15-.16,0,0-.15-.19-.06-.08-.09-.12-.15-.25-.23-.38-.1-.19.03.12-.04-.09-.02-.07-.05-.14-.07-.21-.01-.05-.02-.09-.03-.14,0-.01-.03-.25-.02-.09-.01-.15-.02-.29-.01-.44,0-.05,0-.1.01-.15-.01.15.02-.13.03-.16.12-.53.32-.9.69-1.24-.01.01.17-.14.09-.08s.12-.08.1-.07c.05-.03.1-.06.15-.09-.15.09-.04.02.02,0s.33-.05.13-.04c.13,0,.26,0,.39,0,.04,0,.18.02.02,0,.09.01.17.03.26.05.13.03.26.07.39.11.07.02.13.05.2.07.08.03.09.03.02,0,.04.02.09.04.13.06.13.06.25.12.38.19s.24.14.35.22c.06.04.11.08.17.12-.13-.1.08.07.1.09.09.08.18.17.26.26.02.03.14.18.03.02.04.06.08.12.12.18.21.35.67.48,1.03.27s.48-.68.27-1.03h0Z"/>
  </g>
</svg>