<?xml version="1.0" encoding="UTF-8"?>
<svg xmlns="http://www.w3.org/2000/svg" viewBox="0 0 200 200">
  <defs>
    <style>
      .cls-1 {
        fill: #d75035;
      }

      .cls-1, .cls-2, .cls-3 {
        stroke-width: 0px;
      }

      .cls-4 {
        font-family: OptimaLTPro-Bold, 'Optima LT Pro';
        font-size: 24px;
        font-weight: 700;
      }

      .cls-4, .cls-2 {
        fill: #f2e9d0;
      }

      .cls-5 {
        isolation: isolate;
      }

      .cls-3 {
        fill: #803020;
      }

      .cls-6 {
        mix-blend-mode: saturation;
      }
    </style>
  </defs>
  <g class="cls-5">
    <g id="Layer_2" data-name="Layer 2">
      <g id="Circles">
        <g>
          <circle class="cls-1" cx="100" cy="100" r="99"/>
          <path class="cls-3" d="M100,2c54.04,0,98,43.96,98,98s-43.96,98-98,98S2,154.04,2,100,45.96,2,100,2M100,0C44.77,0,0,44.77,0,100s44.77,100,100,100,100-44.77,100-100S155.23,0,100,0h0Z"/>
        </g>
      </g>
      <g id="Fisk">
        <g>
          <path class="cls-3" d="M172.01,70.37c-6.44-1.08-13.47,1.76-19.08,5.95-5.54,4.14-10.49,9.71-16.41,12.92-3.83,2.08-8.05,3.07-12.12,2.17-3.45-.77-6.67-2.85-9.68-5.24-7.06-5.59-13.24-11.9-21.09-15.47-7.68-3.5-15.84-5.09-23.94-4.6-7.72.46-15.37,2.8-22.49,6.83-3.59,2.03-6.89,4.59-10.23,7.27-2.93,2.35-6.04,4.79-8.35,8.21-2.05,3.03-3.12,7.08-3.04,11.17.06,2.94,1.49,5.54,3,7.65,3.49,4.85,8.51,8.72,12.88,11.95,4.6,3.39,9.53,6.04,14.69,7.39,10.31,2.68,20.94,1.05,31.22-1.29,7.59-1.72,19.48-6.56,26.89-9.37s10.2-3.99,17.71-1.53c4.4,1.45,8.19,5.1,12.03,8.35,9.15,7.76,16.5,11.24,27.51,10.79-3.91-7.55-7.15-11.39-11-19-1.58-3.12-3.9-6.22-4-10-.08-3.04,3.5-10.5,5-13,3-5,8.68-11.92,10.51-21.13Z"/>
          <path class="cls-2" d="M172.41,68.93c-5.51-.86-10.95.63-15.79,3.25-5.1,2.76-9.24,6.86-13.63,10.59s-9.32,7.34-15.2,7.47-10.78-4.04-15.09-7.65-8.76-7.61-13.68-10.68-10.92-5.32-16.81-6.46c-11.84-2.28-23.96-.15-34.56,5.5-5.33,2.84-10.18,6.71-14.75,10.63-4.4,3.77-7.7,8.27-8.56,14.12-.42,2.87-.39,5.7.75,8.41,1.06,2.55,2.76,4.79,4.58,6.84,3.7,4.16,8.28,7.69,12.87,10.81,4.93,3.35,10.39,5.85,16.27,6.91,6.32,1.14,12.74.87,19.07-.06,5.47-.8,10.9-1.97,16.17-3.67,5-1.6,9.9-3.48,14.8-5.37,2.23-.86,4.45-1.72,6.68-2.57,2.38-.91,4.81-1.9,7.35-2.29,5.3-.83,10.65,1.41,14.77,4.59,4.4,3.41,8.34,7.32,13.08,10.28,4.02,2.51,8.46,4.32,13.17,5.02,2.53.38,5.06.48,7.61.39,1.17-.04,1.83-1.23,1.3-2.26-2.39-4.6-5.25-8.9-7.89-13.35-1.37-2.3-2.56-4.69-3.85-7.03-1.19-2.16-2.57-4.34-2.96-6.82-.27-1.7.26-3.31.82-4.9.67-1.91,1.5-3.77,2.4-5.59,1.59-3.21,3.67-6.11,5.58-9.13,2.96-4.68,5.45-9.69,6.57-15.14.39-1.88-2.5-2.69-2.89-.8-1.04,5.05-3.27,9.63-5.99,13.98-1.99,3.18-4.2,6.21-5.86,9.58-.92,1.86-1.76,3.76-2.48,5.7-.6,1.61-1.2,3.34-1.23,5.08-.06,2.56,1.02,5.05,2.2,7.27,1.27,2.38,2.53,4.78,3.85,7.13,2.94,5.25,6.37,10.2,9.15,15.54l1.3-2.26c-4.76.18-9.46-.39-13.89-2.19s-8.76-4.93-12.56-8.15c-4.19-3.55-8.21-7.42-13.6-9.03-2.42-.72-4.98-1.21-7.51-1.03-2.22.16-4.36.76-6.45,1.5-9.36,3.31-18.43,7.45-28.02,10.09-11.21,3.09-24.09,5.03-35.35,1.19-5.34-1.82-10.02-5-14.46-8.42s-8.72-7.06-11.29-11.88-1.12-11.38,2.05-15.64c1.64-2.21,3.75-4.05,5.87-5.79,2.29-1.87,4.61-3.73,7.02-5.45,9.59-6.83,21.33-10.5,33.13-9.53,5.92.48,11.85,2.1,17.2,4.69,5.02,2.43,9.36,5.97,13.6,9.55s8.5,7.7,13.67,9.92,10.95,1.54,15.98-1.07,8.96-6.53,13.13-10.12,8.72-6.83,14.12-8.28c2.43-.65,4.99-.91,7.48-.52,1.89.29,2.7-2.6.8-2.89Z"/>
        </g>
        <path class="cls-2" d="M125.45,93.09c3.41,1.87,5.28,5.1,5.59,8.94.17,2.01-.26,3.67-1.21,5.44s-2.06,3.27-2.93,4.99,1.72,3.24,2.59,1.51c1-1.98,2.35-3.75,3.32-5.75,1.11-2.28,1.45-4.51,1.14-7.02-.57-4.56-2.9-8.46-6.99-10.7-1.69-.93-3.21,1.66-1.51,2.59h0Z"/>
        <path class="cls-2" d="M54.76,71.67c2.84,1.99,3.85,5.6,4.59,8.8.81,3.48,1.46,7.02,1.91,10.57.97,7.69,1,15.39-.77,22.98-.86,3.68-2.04,7.42-4.29,10.5-1.14,1.56,1.46,3.06,2.59,1.51,2.08-2.86,3.32-6.33,4.22-9.72,1.04-3.93,1.64-8,1.87-12.06.47-8.14-.78-16.47-2.6-24.38-.95-4.13-2.41-8.25-6.02-10.78-1.58-1.11-3.09,1.49-1.51,2.59h0Z"/>
        <g>
          <path class="cls-3" d="M85.39,101.17c-4.91-2.15-10.89-1.54-15.93,0,.64,1.88,4.75,8.55,7.97,10.71,3.98,2.68,10.95,5.36,18.92,4.02-2.48-6.1-6.04-12.58-10.95-14.73Z"/>
          <path class="cls-2" d="M85.79,99.72c-5.3-2.23-11.35-1.61-16.73,0-.73.22-1.33,1.07-1.05,1.85.76,2.11,2.08,4.06,3.36,5.88,1.58,2.24,3.33,4.46,5.65,5.96,5.79,3.74,12.96,5,19.72,3.93.74-.12,1.33-1.15,1.05-1.85-2.37-5.8-5.6-12.85-11.64-15.62-1.74-.8-3.27,1.79-1.51,2.59,5.31,2.43,8.18,8.73,10.26,13.83l1.05-1.85c-5.96.95-12.32-.35-17.4-3.63-1.92-1.24-3.38-3.18-4.67-5.02-1.06-1.52-2.39-3.45-2.96-5.03l-1.05,1.85c4.93-1.47,10.28-2.04,15.13,0,.75.32,1.64-.34,1.85-1.05.25-.86-.3-1.53-1.05-1.85Z"/>
        </g>
        <text class="cls-4" transform="translate(77.06 168.29)"><tspan x="0" y="0">FISK</tspan></text>
        <g class="cls-6">
          <circle class="cls-2" cx="100" cy="100" r="100"/>
        </g>
      </g>
    </g>
  </g>
</svg>