<?xml version="1.0" encoding="UTF-8"?>
<svg xmlns="http://www.w3.org/2000/svg" viewBox="0 0 200.5 200">
  <defs>
    <style>
      .cls-1 {
        fill: #d75035;
      }

      .cls-1, .cls-2, .cls-3 {
        stroke-width: 0px;
      }

      .cls-4 {
        isolation: isolate;
      }

      .cls-2, .cls-5 {
        fill: #f2e9d0;
      }

      .cls-5 {
        font-family: OptimaLTPro-Bold, 'Optima LT Pro';
        font-size: 24px;
        font-weight: 700;
      }

      .cls-3 {
        fill: #803020;
      }

      .cls-6 {
        fill: none;
        stroke: #4d1d13;
        stroke-miterlimit: 10;
        stroke-width: 4px;
      }

      .cls-7 {
        mix-blend-mode: saturation;
      }
    </style>
  </defs>
  <g class="cls-4">
    <g id="Layer_2" data-name="Layer 2">
      <g id="Gluten">
        <g id="Gluten-2" data-name="Gluten">
          <g>
            <circle class="cls-1" cx="100.5" cy="100" r="99"/>
            <path class="cls-3" d="M100.5,2c54.04,0,98,43.96,98,98s-43.96,98-98,98S2.5,154.04,2.5,100,46.46,2,100.5,2M100.5,0C45.27,0,.5,44.77.5,100s44.77,100,100,100,100-44.77,100-100S155.73,0,100.5,0h0Z"/>
          </g>
          <g>
            <g>
              <path class="cls-3" d="M98.95,60.04c-6.5-4.17-8.9-12.85-7.8-20.5,1.1-7.65,5.04-14.55,8.91-21.23"/>
              <path class="cls-2" d="M99.71,58.75c-5.57-3.67-7.64-10.72-7.27-17.09.49-8.2,4.91-15.65,8.92-22.58.97-1.67-1.62-3.19-2.59-1.51-4.4,7.62-9.08,15.78-9.36,24.81-.23,7.27,2.53,14.86,8.78,18.97,1.62,1.07,3.12-1.53,1.51-2.59h0Z"/>
            </g>
            <g>
              <path class="cls-3" d="M99.06,60.18c3.46-4.82,7.45-11.3,8.03-17.2.83-8.5-3.36-16.82-7.12-24.49"/>
              <path class="cls-2" d="M100.35,60.94c4.28-5.98,8.41-12.82,8.33-20.41-.08-8.14-3.93-15.66-7.43-22.8-.85-1.73-3.44-.21-2.59,1.51,3.26,6.65,6.94,13.7,7.02,21.28.07,7.04-3.97,13.37-7.93,18.9-1.13,1.57,1.48,3.07,2.59,1.51h0Z"/>
            </g>
          </g>
          <g>
            <g>
              <path class="cls-3" d="M101.55,68.13c0-7.39,5.29-12.99,11.49-15.1,6.2-2.11,13.2-1.42,20-.71"/>
              <path class="cls-2" d="M103.05,68.13c.07-5.78,3.71-10.62,8.85-13.04,6.46-3.04,14.29-1.98,21.14-1.27,1.92.2,1.9-2.8,0-3-7.68-.8-16.14-1.7-23.26,1.99-5.77,2.99-9.65,8.78-9.73,15.33-.02,1.93,2.98,1.93,3,0h0Z"/>
            </g>
            <g>
              <path class="cls-3" d="M101.5,68.28c5.22,1.1,11.94,2,16.59.13,6.7-2.69,10.88-9.73,14.78-16.12"/>
              <path class="cls-2" d="M101.1,69.72c6.67,1.39,14.25,2.46,20.34-1.34,5.74-3.58,9.29-9.7,12.72-15.33,1.01-1.65-1.59-3.16-2.59-1.51-3.09,5.06-6.25,10.74-11.34,14.06-5.44,3.55-12.32,2.49-18.33,1.24-1.88-.39-2.69,2.5-.8,2.89h0Z"/>
            </g>
          </g>
          <g>
            <g>
              <path class="cls-3" d="M101.56,89.88c.17-7.49,5.82-13.28,12.33-15.56,6.51-2.28,13.79-1.75,20.88-1.19"/>
              <path class="cls-2" d="M103.06,89.88c.21-6.04,4.34-10.97,9.66-13.48,6.76-3.18,14.84-2.34,22.04-1.77,1.93.15,1.92-2.85,0-3-8.03-.63-16.77-1.32-24.18,2.49-5.98,3.07-10.29,8.94-10.52,15.76-.07,1.93,2.93,1.93,3,0h0Z"/>
            </g>
            <g>
              <path class="cls-3" d="M101.5,90.03c5.42,1,12.4,1.75,17.3-.25,7.05-2.88,11.57-10.1,15.78-16.66"/>
              <path class="cls-2" d="M101.1,91.48c6.98,1.27,14.76,2.13,21.1-1.75s9.93-10.02,13.67-15.86c1.05-1.63-1.55-3.14-2.59-1.51-3.39,5.28-6.86,11.13-12.28,14.58-5.69,3.62-12.78,2.79-19.1,1.64-1.89-.34-2.7,2.55-.8,2.89h0Z"/>
            </g>
          </g>
          <g>
            <g>
              <path class="cls-3" d="M101.56,110.73c.21-7.51,5.93-13.34,12.51-15.66,6.58-2.32,13.93-1.82,21.07-1.29"/>
              <path class="cls-2" d="M103.06,110.73c.24-6.15,4.55-11.15,9.99-13.64,6.81-3.12,14.85-2.34,22.1-1.81,1.93.14,1.92-2.86,0-3-8.06-.59-16.79-1.22-24.24,2.53-6.1,3.07-10.56,8.99-10.84,15.92-.08,1.93,2.92,1.93,3,0h0Z"/>
            </g>
            <g>
              <path class="cls-3" d="M101.5,110.88c5.46.97,12.5,1.69,17.45-.34,7.13-2.92,11.72-10.18,16-16.78"/>
              <path class="cls-2" d="M101.1,112.32c7.11,1.25,14.98,2.06,21.4-1.92,6.05-3.75,9.96-10.05,13.75-15.89,1.05-1.62-1.54-3.13-2.59-1.51-3.43,5.29-6.94,11.12-12.36,14.61-5.77,3.72-12.95,2.95-19.4,1.82-1.89-.33-2.7,2.56-.8,2.89h0Z"/>
            </g>
          </g>
          <g>
            <g>
              <path class="cls-3" d="M101.56,131.58c.21-7.51,5.93-13.34,12.51-15.66,6.58-2.32,13.93-1.82,21.07-1.29"/>
              <path class="cls-2" d="M103.06,131.58c.24-6.15,4.55-11.15,9.99-13.64,6.81-3.12,14.85-2.34,22.1-1.81,1.93.14,1.92-2.86,0-3-8.06-.59-16.79-1.22-24.24,2.53-6.1,3.07-10.56,8.99-10.84,15.92-.08,1.93,2.92,1.93,3,0h0Z"/>
            </g>
            <g>
              <path class="cls-3" d="M101.5,131.73c5.46.97,12.5,1.69,17.45-.34,7.13-2.92,11.72-10.18,16-16.78"/>
              <path class="cls-2" d="M101.1,133.17c7.11,1.25,14.98,2.06,21.4-1.92,6.05-3.75,9.96-10.05,13.75-15.89,1.05-1.62-1.54-3.13-2.59-1.51-3.43,5.29-6.94,11.12-12.36,14.61-5.77,3.72-12.95,2.95-19.4,1.82-1.89-.33-2.7,2.56-.8,2.89h0Z"/>
            </g>
          </g>
          <g>
            <g>
              <path class="cls-3" d="M97.93,70.85c0-7.39-5.29-12.99-11.49-15.1-6.2-2.11-13.2-1.42-20-.71"/>
              <path class="cls-2" d="M99.43,70.85c-.08-6.55-3.96-12.34-9.73-15.33-7.12-3.69-15.58-2.78-23.26-1.99-1.9.2-1.92,3.2,0,3,6.85-.71,14.67-1.77,21.14,1.27,5.15,2.42,8.79,7.26,8.85,13.04.02,1.93,3.02,1.93,3,0h0Z"/>
            </g>
            <g>
              <path class="cls-3" d="M97.98,70.99c-5.22,1.1-11.94,2-16.59.13-6.7-2.69-10.88-9.73-14.78-16.12"/>
              <path class="cls-2" d="M97.58,69.55c-6.02,1.26-12.88,2.31-18.33-1.24-5.09-3.31-8.26-9-11.34-14.06-1-1.65-3.6-.14-2.59,1.51,3.43,5.62,6.98,11.76,12.72,15.33,6.1,3.79,13.66,2.74,20.34,1.34,1.89-.39,1.09-3.29-.8-2.89h0Z"/>
            </g>
          </g>
          <g>
            <g>
              <path class="cls-3" d="M97.92,92.6c-.17-7.49-5.82-13.28-12.33-15.56s-13.79-1.75-20.88-1.19"/>
              <path class="cls-2" d="M99.42,92.6c-.24-6.82-4.54-12.69-10.52-15.76-7.41-3.81-16.15-3.12-24.18-2.49-1.91.15-1.93,3.15,0,3,7.2-.57,15.29-1.41,22.04,1.77,5.32,2.51,9.45,7.43,9.66,13.48.07,1.93,3.07,1.93,3,0h0Z"/>
            </g>
            <g>
              <path class="cls-3" d="M97.98,92.75c-5.42,1-12.4,1.75-17.3-.25-7.05-2.88-11.57-10.1-15.78-16.66"/>
              <path class="cls-2" d="M97.58,91.3c-6.32,1.15-13.42,1.98-19.1-1.64s-8.89-9.3-12.28-14.58c-1.04-1.62-3.64-.12-2.59,1.51,3.74,5.83,7.62,12.15,13.67,15.86s14.12,3.02,21.1,1.75c1.9-.34,1.09-3.24-.8-2.89h0Z"/>
            </g>
          </g>
          <g>
            <g>
              <path class="cls-3" d="M97.92,113.45c-.21-7.51-5.93-13.34-12.51-15.66-6.58-2.32-13.93-1.82-21.07-1.29"/>
              <path class="cls-2" d="M99.42,113.45c-.28-6.93-4.74-12.85-10.84-15.92-7.45-3.75-16.18-3.12-24.24-2.53-1.91.14-1.93,3.14,0,3,7.24-.53,15.29-1.31,22.1,1.81,5.44,2.49,9.74,7.49,9.99,13.64.08,1.92,3.08,1.93,3,0h0Z"/>
            </g>
            <g>
              <path class="cls-3" d="M97.98,113.6c-5.46.97-12.5,1.69-17.45-.34-7.13-2.92-11.72-10.18-16-16.78"/>
              <path class="cls-2" d="M97.58,112.15c-6.45,1.13-13.63,1.91-19.4-1.82-5.42-3.5-8.93-9.32-12.36-14.61-1.05-1.61-3.65-.11-2.59,1.51,3.79,5.84,7.7,12.13,13.75,15.89,6.42,3.98,14.3,3.17,21.4,1.92,1.9-.33,1.09-3.23-.8-2.89h0Z"/>
            </g>
          </g>
          <g>
            <g>
              <path class="cls-3" d="M97.92,134.3c-.21-7.51-5.93-13.34-12.51-15.66-6.58-2.32-13.93-1.82-21.07-1.29"/>
              <path class="cls-2" d="M99.42,134.3c-.28-6.93-4.74-12.85-10.84-15.92-7.45-3.75-16.18-3.12-24.24-2.53-1.91.14-1.93,3.14,0,3,7.24-.53,15.29-1.31,22.1,1.81,5.44,2.49,9.74,7.49,9.99,13.64.08,1.92,3.08,1.93,3,0h0Z"/>
            </g>
            <g>
              <path class="cls-3" d="M97.98,134.45c-5.46.97-12.5,1.69-17.45-.34-7.13-2.92-11.72-10.18-16-16.78"/>
              <path class="cls-2" d="M97.58,133c-6.45,1.13-13.63,1.91-19.4-1.82-5.42-3.5-8.93-9.32-12.36-14.61-1.05-1.61-3.65-.11-2.59,1.51,3.79,5.84,7.7,12.13,13.75,15.89,6.42,3.98,14.3,3.17,21.4,1.92,1.9-.33,1.09-3.23-.8-2.89h0Z"/>
            </g>
          </g>
          <path class="cls-2" d="M97.66,60.42c-1.06,5.6-1.03,11.28-.72,16.94s.72,11.62,1.08,17.43c.37,5.84.73,11.68,1.1,17.53s.68,11.22.29,16.88c-.42,6.09-1.04,12.28.82,18.2.58,1.83,3.48,1.05,2.89-.8-1.64-5.21-1.21-10.65-.82-16.01s.28-10.83-.07-16.3c-.72-11.43-1.45-22.86-2.15-34.29-.39-6.26-.71-12.6.46-18.8.36-1.89-2.53-2.7-2.89-.8h0Z"/>
          <text class="cls-5" transform="translate(35.55 170.11)"><tspan x="0" y="0">GLUTENFRI</tspan></text>
          <circle class="cls-6" cx="100.5" cy="82" r="65"/>
          <line class="cls-6" x1="147.41" y1="37.09" x2="54.05" y2="128.09"/>
        </g>
        <g class="cls-7">
          <circle class="cls-2" cx="100" cy="100" r="100"/>
        </g>
      </g>
    </g>
  </g>
</svg>