<?xml version="1.0" encoding="UTF-8"?>
<svg id="Layer_2" data-name="Layer 2" xmlns="http://www.w3.org/2000/svg" viewBox="0 0 200 200">
  <defs>
    <style>
      .cls-1 {
        fill: #d75035;
      }

      .cls-1, .cls-2, .cls-3 {
        stroke-width: 0px;
      }

      .cls-4 {
        font-family: OptimaLTPro-Bold, 'Optima LT Pro';
        font-size: 24px;
        font-weight: 700;
      }

      .cls-4, .cls-2 {
        fill: #f2e9d0;
      }

      .cls-5 {
        letter-spacing: -.02em;
      }

      .cls-3 {
        fill: #803020;
      }

      .cls-6 {
        letter-spacing: 0em;
      }
    </style>
  </defs>
  <g id="Circles">
    <g>
      <circle class="cls-1" cx="100" cy="100" r="99"/>
      <path class="cls-3" d="M100,2c54.04,0,98,43.96,98,98s-43.96,98-98,98S2,154.04,2,100,45.96,2,100,2M100,0C44.77,0,0,44.77,0,100s44.77,100,100,100,100-44.77,100-100S155.23,0,100,0h0Z"/>
    </g>
  </g>
  <g id="Kød">
    <g>
      <path class="cls-3" d="M165.1,76.76c-2.73-6.25-8.92-10.17-14.84-13.57-7.49-4.31-15.58-8.52-24.22-8.25-11.63.36-21.36,8.68-29.36,17.14-2.85,3.01-5.65,6.14-9.14,8.39-5.59,3.61-12.42,4.64-19.04,5.19-4.58.38-9.17.56-13.76.55-7.41-.01-15.92-.09-20.78,5.5-2.52,2.89-4.48,6.89-4,10.82.2,1.63,1.28,2.91,2.29,4.29,1.24,1.68,3.24,2.68,6.06,4.09,2.41,1.2,4.59,1.97,7.12,2.83,2.81.95,5.64,1.86,8.49,2.72,5.68,1.72,11.43,3.23,17.24,4.44,8.69,1.81,17.53,2.94,26.41,3.06,19.54.26,39.6-4.7,55.04-16.68,4.68-3.63,8.97-7.97,11.56-13.31s3.3-11.78.93-17.21Z"/>
      <path class="cls-2" d="M166.4,76c-2.11-4.68-6.02-8.14-10.21-10.95-4.58-3.07-9.52-5.84-14.56-8.06s-10.96-3.95-16.77-3.49c-5.14.4-10.03,2.26-14.42,4.92s-8.54,6.25-12.27,9.97-7.34,8.38-12.09,11.21-10.41,3.85-15.87,4.39c-5.99.58-11.99.67-18,.71-4.69.03-9.58.24-13.95,2.13s-8.08,6.25-9.38,11.05c-.69,2.55-.74,5.31.64,7.64,1.27,2.14,2.9,3.86,5.05,5.11,5.16,3,10.93,4.76,16.59,6.53,22.66,7.09,46.92,11.09,70.42,5.86,10.55-2.35,20.8-6.55,29.62-12.86s16.98-15.08,16.84-26.47c-.03-2.68-.61-5.25-1.65-7.71-.32-.75-1.41-.9-2.05-.54-.78.44-.85,1.31-.54,2.05,4.34,10.29-2.72,20.72-10.32,27.13s-17.01,11.08-26.65,13.93c-21.55,6.38-44.38,4.1-65.79-1.66-5.7-1.53-11.37-3.27-16.93-5.23-4.51-1.59-9.85-3.54-12.2-8.03-1.16-2.21-.3-5.21.74-7.31s2.49-4.09,4.41-5.45c3.56-2.51,8.14-3,12.37-3.15,10.63-.38,21.76.45,32.04-2.85,5.1-1.64,9.28-4.57,13.02-8.35s6.99-7.44,10.9-10.76c7.68-6.52,17.04-11,27.28-8.7,5.44,1.22,10.45,3.78,15.28,6.5,4.22,2.38,8.56,4.83,11.99,8.32,1.62,1.64,2.92,3.5,3.87,5.6.79,1.76,3.38.23,2.59-1.51Z"/>
    </g>
    <path class="cls-3" d="M166,91c-2.73-6.25-7.82-12.41-13.74-15.81-7.49-4.31-15.58-8.52-24.22-8.25-11.63.36-21.36,8.68-29.36,17.14-2.85,3.01-5.65,6.14-9.14,8.39-5.59,3.61-12.42,4.64-19.04,5.19-4.58.38-9.17.56-13.76.55-7.41-.01-19.89,3.2-24.75,8.79-2.52,2.89-.48,1.07,0,5,.2,1.63,2.99,5.63,4,7,1.24,1.68,3.18.6,6,2,2.41,1.2,3.47,3.14,6,4,2.81.95,5.08,2.59,7.93,3.45,5.68,1.72,10.26,5.34,16.07,6.55,8.69,1.81,19.12,2.88,28,3,19.54.26,36.56-8.02,52-20,4.68-3.63,11.58-6.7,14.17-12.03s2.2-9.54-.17-14.97Z"/>
    <g>
      <path class="cls-3" d="M153.39,75.53c-3.18-4.27-7.94-7.06-12.7-9.44-3.26-1.63-6.64-3.14-10.25-3.61-4.95-.65-10.08.77-14.2,3.59-3.84,2.62-6.77,6.34-10.18,9.5-6.78,6.26-14.67,11.5-23.56,13.94-8.9,2.44-15.83,2.01-25,3h-4c-2.82.22-3.75.25-6.42,1.19-2.67.95-5.16,2.72-6.37,5.28-.43.91-.68,1.95-.44,2.92.24.98.95,1.78,1.72,2.42,4.26,3.59,11.21,5.46,16.51,7.18,5.62,1.83,10.34,2.38,16,4,21,6,56.2-2.3,76.57-20.27,1.58-1.4,3.14-2.88,4.17-4.72,2.61-4.64,1.34-10.72-1.85-14.98Z"/>
      <path class="cls-2" d="M154.04,75.15c-2.93-3.84-6.91-6.53-11.14-8.77-4.5-2.38-9.33-4.72-14.53-4.8-4.88-.08-9.67,1.65-13.53,4.58s-7.12,6.99-10.87,10.28c-7.91,6.94-17.05,11.89-27.5,13.61-5.19.85-10.46.97-15.69,1.39-1.69.14-3.34.31-5.04.31-1.43,0-2.82.02-4.24.16-4,.39-8.31,2.02-10.7,5.42-1.22,1.73-1.93,4.04-.74,5.97,1.08,1.75,3.16,2.97,4.92,3.92,4.07,2.21,8.58,3.48,12.97,4.89,5.13,1.65,10.45,2.49,15.64,3.91,15.42,4.23,32.21,1.84,47.17-3.18,8.16-2.74,16.07-6.42,23.22-11.23,3.53-2.38,7.19-5.02,10.05-8.2,3.07-3.41,4-7.8,2.88-12.23-.55-2.18-1.55-4.22-2.87-6.03-.56-.77-1.86-.03-1.3.76,2.61,3.58,4.05,8.37,2.54,12.69-1.43,4.09-5.69,7.08-9.04,9.58-6.52,4.86-13.81,8.68-21.39,11.6s-15.64,5.05-23.75,6.13c-7.16.95-14.56,1.17-21.71-.07-4.07-.71-8.04-1.96-12.07-2.85-4.65-1.02-9.18-2.35-13.69-3.84-2.21-.73-4.41-1.52-6.51-2.52-1.89-.91-4.05-2.01-5.43-3.64-1.88-2.22.21-5.13,2.03-6.62,1.68-1.38,3.82-2.2,5.92-2.68,2.61-.59,5.19-.31,7.82-.45,2.43-.12,4.87-.44,7.31-.59s4.81-.3,7.21-.53c4.72-.46,9.42-1.31,13.9-2.91s8.53-3.79,12.38-6.43,7.36-5.62,10.59-8.91,6.59-6.99,11.02-9c4.72-2.15,9.88-2.27,14.76-.61,4.52,1.54,9.07,3.94,12.95,6.72,1.94,1.39,3.71,3.02,5.16,4.92.58.76,1.88.01,1.3-.76Z"/>
    </g>
    <path class="cls-2" d="M64.88,97.85c-2.01-1.12-4.6-1.59-6.89-1.46-1.37.08-2.76.35-3.86,1.21-1.03.8-1.67,2-1.54,3.32.3,2.87,3.19,4.1,5.67,4.6,2.65.54,5.78.6,7.77-1.54,1.03-1.1,1.44-2.55.94-3.99-.4-1.16-1.16-1.76-2.28-2.21-.9-.35-1.29,1.1-.4,1.45.64.25,1.03.57,1.26,1.23.33.98.01,1.88-.72,2.6-1.58,1.57-4.05,1.44-6.06,1.04-1.82-.36-4.31-1.04-4.68-3.19-.4-2.38,2.66-2.99,4.36-3.03,1.87-.05,4.02.37,5.66,1.28.84.47,1.6-.83.76-1.3h0Z"/>
    <g>
      <path class="cls-2" d="M32.5,114c1.93,0,1.93-3,0-3s-1.93,3,0,3h0Z"/>
      <path class="cls-2" d="M31.05,112.9c.11.63.33,1.25.55,1.85.28.76.57,1.53.95,2.25.42.81,1.06,1.52,1.68,2.17.39.4.78.85,1.27,1.14.25.15.54.25.82.34.11.03.22.08.33.1.1.04.07.02-.11-.06.07.03.14.07.21.11.68.39,1.67.18,2.05-.54s.19-1.64-.54-2.05c-.27-.16-.57-.28-.86-.37-.09-.03-.19-.05-.29-.08l-.09-.03c-.15-.05-.12-.04.08.04l-.09-.05c-.13-.09-.12-.08.04.03-.06,0-.18-.18-.22-.22-.16-.16-.32-.32-.48-.48-.17-.18-.34-.36-.5-.55-.08-.09-.16-.19-.24-.28-.26-.31.17.25-.07-.08-.17-.23-.31-.46-.44-.71-.07-.13-.13-.26-.19-.39-.04-.08-.07-.16-.1-.24-.13-.29.13.33.01.03-.13-.33-.26-.67-.38-1-.2-.56-.39-1.13-.5-1.72-.14-.77-1.12-1.28-1.85-1.05-.83.27-1.2,1.02-1.05,1.85h0Z"/>
      <path class="cls-2" d="M37.1,120.95c8.33,3.48,15.96,8.37,24.21,12.02,4.62,2.04,9.36,3.85,14.35,4.71s9.92,1.41,14.92,1.63c9.95.43,20.04-.54,29.61-3.39,9.05-2.69,17.57-6.95,25.61-11.86,4.39-2.69,8.57-5.69,12.89-8.47,3.6-2.32,6.67-4.75,9.1-8.32,1.09-1.6-1.51-3.1-2.59-1.51-2.02,2.97-4.59,5.03-7.59,6.96-3.66,2.36-7.2,4.89-10.88,7.23-7.8,4.96-16.02,9.37-24.81,12.29-9.19,3.06-18.85,4.32-28.52,4.16s-19.66-1.42-28.79-5.23-17.55-9.26-26.73-13.1c-.75-.31-1.64.34-1.85,1.05-.25.86.3,1.53,1.05,1.85h0Z"/>
      <path class="cls-2" d="M167.95,106.9c1.09-3.73,1.45-7.45.93-11.3-.41-3.04-.83-6.02-.88-9.1-.03-1.62-2.66-2.13-2.95-.4-.21,1.24-.41,2.48-.62,3.72-.1.63-.13,1.37-.33,1.98-.27.84-1.05,1.7-1.57,2.47-2.72,3.98-5.94,8.06-9.84,10.97-2.12,1.59-4.43,2.97-6.64,4.45l-3.32,2.22c-.16.11-.9.57-.15.19-.18.09-.39.15-.58.23l-15.88,6.33c-1.17.47-2.29.64-3.54.86l-9.79,1.75-3.65.65c-.26.05-.52.08-.77.14,0,0,.55-.03-.04-.03-2.89,0-5.79.19-8.68.28-1.68.05-3.44.27-5.12.1l-8.41-.88c-2.56-.27-5.13-.59-7.69-.81-.51-.04.25.07.11.02-.22-.09-.49-.11-.71-.16l-3.26-.74c-5.54-1.26-11.13-2.4-16.65-3.78-1.48-.37-2.94-.92-4.39-1.39l-9.35-3.02-1.29-.42c-.3-.1-.79-.41-.19-.03-.78-.49-1.59-.93-2.38-1.4l-4.34-2.54-1.76-1.03c-.32-.19-.75-.56-1.11-.65-.42-.11.5.73.38.4-.09-.24-.37-.49-.53-.7l-1.17-1.54c-1.02-1.34-3.06-.59-2.74,1.16.5,2.73,1.29,5.32,2,8,.5,1.86,3.39,1.07,2.89-.8-.71-2.68-1.5-5.27-2-8l-2.74,1.16c.7.92,1.38,2.19,2.32,2.87.82.59,1.78,1.04,2.65,1.55,2.32,1.36,4.61,2.93,7.02,4.11,1.93.94,4.22,1.4,6.25,2.05l8.66,2.79c1.17.38,2.38.61,3.58.89l9.57,2.18c4.03.92,7.95,1.89,12.06,2.32l10.11,1.06c1.51.16,3.02.4,4.54.35l9.49-.3c1.61-.05,3.16-.07,4.74-.35l9.11-1.63c2.15-.39,4.46-.58,6.56-1.18,1.83-.51,3.63-1.44,5.39-2.15l9.31-3.71c1.41-.56,2.8-1.02,4.06-1.86l7.9-5.3c3.07-2.06,5.76-4.57,8.18-7.38,1.77-2.05,3.37-4.24,4.87-6.49.53-.78,1.19-1.56,1.4-2.49.16-.69.23-1.4.35-2.1.2-1.2.4-2.4.6-3.6l-2.95-.4c.05,2.93.41,5.78.82,8.67.53,3.77.3,7.27-.77,10.93-.54,1.86,2.35,2.65,2.89.8h0Z"/>
    </g>
    <text class="cls-4" transform="translate(73.43 169.78)"><tspan class="cls-5" x="0" y="0">K</tspan><tspan class="cls-6" x="14.23" y="0">ØD</tspan></text>
  </g>
</svg>