<?xml version="1.0" encoding="UTF-8"?>
<svg id="Layer_2" data-name="Layer 2" xmlns="http://www.w3.org/2000/svg" viewBox="0 0 200 200">
  <defs>
    <style>
      .cls-1 {
        fill: #d75035;
      }

      .cls-1, .cls-2, .cls-3 {
        stroke-width: 0px;
      }

      .cls-4 {
        font-family: OptimaLTPro-Bold, 'Optima LT Pro';
        font-size: 24px;
        font-weight: 700;
      }

      .cls-4, .cls-2 {
        fill: #f2e9d0;
      }

      .cls-3, .cls-5 {
        fill: #803020;
      }

      .cls-6 {
        fill: none;
        stroke: #4d1d13;
        stroke-miterlimit: 10;
        stroke-width: 4px;
      }

      .cls-7 {
        letter-spacing: -.03em;
      }

      .cls-8 {
        letter-spacing: 0em;
      }

      .cls-5 {
        stroke: #f2e9d0;
        stroke-linecap: round;
        stroke-linejoin: round;
        stroke-width: 3px;
      }
    </style>
  </defs>
  <g id="Laktose">
    <g id="Laktose-2" data-name="Laktose">
      <g>
        <circle class="cls-1" cx="100" cy="100" r="99" transform="translate(-14.73 182.69) rotate(-80.78)"/>
        <path class="cls-3" d="M100,2c54.04,0,98,43.96,98,98s-43.96,98-98,98S2,154.04,2,100,45.96,2,100,2M100,0C44.77,0,0,44.77,0,100s44.77,100,100,100,100-44.77,100-100S155.23,0,100,0h0Z"/>
      </g>
      <g>
        <g>
          <path class="cls-3" d="M76.17,32.5c15.54.21,33.46-.21,49,0"/>
          <path class="cls-2" d="M76.17,34c16.33.21,32.67-.21,49,0,1.93.03,1.93-2.97,0-3-16.33-.21-32.67.21-49,0-1.93-.03-1.93,2.97,0,3h0Z"/>
        </g>
        <rect class="cls-5" x="93.5" y="49.5" width="45" height="86"/>
        <g>
          <path class="cls-3" d="M62.17,46.5c0,12,.02,25.47,0,29-.02,2.41,0,10,0,13,0,10.87-.2,24.13,0,35l31,12c-10.01-4.22-20.59-8.88-31-12"/>
          <path class="cls-2" d="M60.67,46.5c0,18.93.03,37.86-.06,56.79-.03,6.74-.06,13.48.06,20.21.01.72.47,1.2,1.1,1.45,9.05,3.5,18.11,7.01,27.16,10.51l3.84,1.49c.76.29,1.64-.33,1.85-1.05.25-.86-.31-1.53-1.05-1.85-10.21-4.31-20.38-8.79-31-12-1.85-.56-2.64,2.34-.8,2.89,10.62,3.21,20.79,7.69,31,12l.8-2.89c-9.05-3.5-18.11-7.01-27.16-10.51l-3.84-1.49,1.1,1.45c-.34-19.07.02-38.15.01-57.22,0-6.59-.01-13.18-.01-19.78,0-1.93-3-1.93-3,0h0Z"/>
        </g>
        <g>
          <path class="cls-3" d="M76.41,32.5c4.49,4.69,9.88,10.85,14.93,14.92.84.67,1.48,1.18,2.07,2.08v86l-31-12V46.5l14-14"/>
          <path class="cls-2" d="M75.35,33.56c2.74,2.87,5.4,5.8,8.17,8.64,1.4,1.43,2.83,2.84,4.31,4.19.65.59,1.31,1.17,1.99,1.73.19.15,1.97,1.87,2.07,1.84.06-.01,0-.72.02-.27,0,.18,0,.36,0,.55v81.01c0,1.31-.18,2.77,0,4.07,0,.06,0,.13,0,.19l1.9-1.45c-9.05-3.5-18.11-7.01-27.16-10.51-1.28-.5-2.56-.99-3.84-1.49l1.1,1.45V46.5l-.44,1.06,14-14c1.37-1.37-.75-3.49-2.12-2.12l-6.56,6.56c-2.43,2.43-5.13,4.76-7.37,7.37-.78.91-.51,2.42-.51,3.55v60.13c0,4.74-.19,9.52,0,14.25,0,.07,0,.14,0,.21,0,.71.48,1.2,1.1,1.45,9.05,3.5,18.11,7.01,27.16,10.51,1.28.5,2.56.99,3.84,1.49.93.36,1.9-.55,1.9-1.45V53.31c0-1.22.1-2.5,0-3.72-.06-.72-.43-1.22-.89-1.76-1.16-1.35-2.74-2.37-4.06-3.57-3-2.72-5.77-5.67-8.53-8.62-1.31-1.41-2.62-2.81-3.95-4.21s-3.46.72-2.12,2.12h0Z"/>
        </g>
        <g>
          <path class="cls-3" d="M76.17,32.5l17,17h45c-4.51-5.16-8.75-11.62-13-17"/>
          <path class="cls-2" d="M75.11,33.56c3.39,3.39,6.77,6.77,10.16,10.16l5.74,5.74c.79.79,1.37,1.52,2.56,1.54,10.82.22,21.66,0,32.49,0h12.11c1.37,0,1.89-1.61,1.06-2.56-4.69-5.39-8.59-11.39-13-17-1.19-1.52-3.3.62-2.12,2.12,4.41,5.61,8.31,11.61,13,17l1.06-2.56h-15.24c-8.05,0-16.11,0-24.16,0h-5.59l1.06.44c-4.96-4.96-9.92-9.92-14.88-14.88-.71-.71-1.41-1.41-2.12-2.12-1.37-1.37-3.49.75-2.12,2.12h0Z"/>
        </g>
        <g>
          <path class="cls-3" d="M76.17,24.5c.22,2.17.11,5.82,0,8l-14,14c4.09-3.44,10.36-10.09,14-14"/>
          <path class="cls-2" d="M74.67,24.5c.25,2.65.14,5.35,0,8l.44-1.06c-4.08,4.08-8.16,8.16-12.23,12.23-.59.59-1.18,1.18-1.77,1.77-1.39,1.39.67,3.35,2.12,2.12,5.03-4.25,9.51-9.19,14-14,1.32-1.41-.8-3.54-2.12-2.12-4.49,4.81-8.97,9.75-14,14l2.12,2.12c2.13-2.13,4.25-4.25,6.38-6.38,2.49-2.49,5.08-4.9,7.48-7.48.81-.87.63-2.19.67-3.31.06-1.96.1-3.93-.09-5.89s-3.18-1.92-3,0h0Z"/>
        </g>
        <g>
          <path class="cls-3" d="M124.41,24.5c-15.54-.05-32.47-.53-48,0h48c0,2,.74,5.83,1,8h-49v-8"/>
          <path class="cls-2" d="M124.41,23c-16-.06-32-.54-48,0-1.92.06-1.94,3,0,3h48l-1.5-1.5c.04,2.69.67,5.34,1,8l1.5-1.5h-49l1.5,1.5v-8c0-1.93-3-1.93-3,0v8c0,.81.69,1.5,1.5,1.5h49c.74,0,1.6-.69,1.5-1.5-.33-2.66-.96-5.32-1-8-.01-.81-.68-1.5-1.5-1.5h-48v3c16-.54,32-.06,48,0,1.93,0,1.93-2.99,0-3h0Z"/>
        </g>
      </g>
      <text class="cls-4" transform="translate(32.9 168.12)"><tspan x="0" y="0">LAK</tspan><tspan class="cls-7" x="42.67" y="0">T</tspan><tspan class="cls-8" x="55.3" y="0">OSEFRI</tspan></text>
      <circle class="cls-6" cx="102" cy="81" r="65"/>
      <line class="cls-6" x1="148.94" y1="36.09" x2="55.58" y2="127.09"/>
    </g>
  </g>
</svg>