<?xml version="1.0" encoding="UTF-8"?>
<svg id="Layer_2" data-name="Layer 2" xmlns="http://www.w3.org/2000/svg" viewBox="0 0 200.41 200.41">
  <defs>
    <style>
      .cls-1 {
        font-family: OptimaLTPro-Bold, 'Optima LT Pro';
        font-size: 24.05px;
        font-weight: 700;
      }

      .cls-1, .cls-2 {
        fill: #f2e9d0;
      }

      .cls-3 {
        fill: #d75035;
      }

      .cls-3, .cls-2, .cls-4 {
        stroke-width: 0px;
      }

      .cls-4 {
        fill: #803020;
      }

      .cls-5 {
        fill: none;
        stroke: #4d1d13;
        stroke-miterlimit: 10;
        stroke-width: 4px;
      }
    </style>
  </defs>
  <g id="Nødder">
    <g id="Nødder-2" data-name="Nødder">
      <g>
        <circle class="cls-3" cx="100.21" cy="100.21" r="99.21" transform="translate(-30.72 45.98) rotate(-22.5)"/>
        <path class="cls-4" d="M100.21,2c54.15,0,98.21,44.06,98.21,98.21s-44.06,98.21-98.21,98.21S2,154.36,2,100.21,46.06,2,100.21,2M100.21,0C44.86,0,0,44.86,0,100.21s44.86,100.21,100.21,100.21,100.21-44.86,100.21-100.21S155.55,0,100.21,0h0Z"/>
      </g>
      <g>
        <path class="cls-4" d="M162.5,92.69c-6.16-6.88-13.21-9.33-22.05-12.02-8.83-2.7-21.04,1-26.05,0-4.61-.92-10.81-3.87-13.03-8.02-2.09-3.92-3.52-11.85-5.01-16.03-3.34-9.37-11.23-13.37-21.04-15.03s-21.04,1-26.05,4.01c-3.84,2.31-11.51,7.92-13.03,17.04-1,6.01-.51,16.03,4.01,22.05,4.52,6.01,9.04,8.91,16.25,11.04,4.84,1.43,9.86,2.26,14.51,4.2,4.31,1.8,7.32,7.81,9.32,12.82,1,5.01,12.02,18.04,17.04,21.04,5.76,3.46,12.02,6.01,19.04,7.01,7.22,1.03,20.73-.67,30.06-3.01,8.02-2,17.2-9.45,20.04-17.04,3.01-8.02,2.16-21.18-4.01-28.06Z"/>
        <path class="cls-2" d="M163.56,91.63c-4.49-4.95-10.16-8.12-16.4-10.36-3.08-1.1-6.27-2.28-9.52-2.75s-6.76-.4-10.14-.12c-3.05.25-6.08.7-9.14.89-2.61.16-4.86-.23-7.31-1.15-2.83-1.06-5.84-2.71-7.7-5.16-1.68-2.22-2.34-5.28-3.07-7.92-1.6-5.83-2.74-11.76-6.89-16.42-3.92-4.39-9.56-6.77-15.2-8.01-7.05-1.55-14.38-1.29-21.37.48-5.08,1.28-9.52,3.52-13.47,6.95-4.57,3.96-7.89,9.18-8.71,15.23s-.3,12.57,2.09,18.2,7.24,10.35,12.59,13.07c6.65,3.38,14.26,3.76,21.03,6.72,2.86,1.25,4.71,4.1,6.14,6.74.82,1.5,1.53,3.05,2.18,4.63.35.86.57,1.77.96,2.63,2.07,4.61,5.6,8.75,8.94,12.49,1.66,1.85,3.4,3.66,5.3,5.28,2.08,1.78,4.42,3.1,6.86,4.32,6.25,3.12,13.12,5.17,20.13,5.25s13.45-.82,20.01-2.06c3.16-.6,6.38-1.2,9.36-2.44,3.18-1.31,6.1-3.13,8.77-5.3,4.98-4.03,8.81-9.3,10.03-15.66,1.14-5.92.8-12.35-1.23-18.05-.97-2.73-2.35-5.27-4.27-7.46-1.28-1.45-3.39.68-2.12,2.12,3.75,4.27,5.11,10.34,5.24,15.88s-1.07,11.34-4.67,15.93c-3.9,4.97-9.62,9.12-15.78,10.73s-12.81,2.62-19.27,3.09c-2.86.21-5.74.32-8.6.11-3.37-.24-6.72-1.07-9.92-2.15-5.35-1.81-10.44-4.37-14.5-8.33-3.64-3.54-7-7.5-9.75-11.77s-3.77-9.05-6.57-13.19c-1.71-2.53-3.77-4.61-6.64-5.76-3.55-1.42-7.29-2.23-10.99-3.18-6-1.54-11.57-3.66-15.93-8.22-2.12-2.22-3.93-4.68-4.98-7.58s-1.56-5.89-1.72-8.92c-.31-5.83.61-11.44,4.23-16.17,2.71-3.55,6.54-6.67,10.65-8.46,5.98-2.6,12.97-3.52,19.45-3.09,5.74.38,11.88,1.98,16.6,5.38,2.13,1.54,3.9,3.56,5.19,5.84,1.39,2.45,2.11,5.17,2.82,7.87,1.44,5.44,2.44,11.73,7.06,15.45,4.23,3.4,9.71,5.42,15.14,5.07,6.09-.4,12.21-1.69,18.33-.86,3.13.42,6.21,1.58,9.17,2.62s5.74,2.24,8.38,3.84,4.98,3.59,7.05,5.88c1.3,1.43,3.42-.69,2.12-2.12Z"/>
      </g>
      <text class="cls-1" transform="translate(38.12 171.08)"><tspan x="0" y="0">NØDDEFRI</tspan></text>
      <path class="cls-2" d="M54.28,55.58c4.68,5.49,9.38,10.99,14.64,15.94s11.25,9.13,17.49,12.9c13.44,8.13,26.96,16.14,40.45,24.21,7.7,4.61,15.4,9.22,23.1,13.82.83.5,1.59-.8.76-1.3-13.55-8.11-27.09-16.21-40.64-24.32-6.7-4.01-13.4-8.02-20.11-12.03-6.43-3.85-12.75-7.79-18.34-12.83-5.93-5.34-11.13-11.41-16.29-17.47-.63-.74-1.68.33-1.06,1.06h0Z"/>
      <path class="cls-2" d="M43.57,62.19c3.73,12.26,13.98,20.54,24.03,27.66.79.56,1.54-.74.76-1.3-9.72-6.89-19.74-14.91-23.34-26.77-.28-.92-1.73-.53-1.45.4h0Z"/>
      <path class="cls-2" d="M80.7,99.1c5.54,6.41,11.14,12.87,17.89,18.05s14.4,8.59,22.33,11.3c4.58,1.56,9.23,2.89,13.88,4.21.93.26,1.33-1.18.4-1.45-8.02-2.28-16.09-4.57-23.68-8.08s-14.32-8.51-20.25-14.55c-3.32-3.38-6.42-6.97-9.52-10.55-.63-.73-1.69.33-1.06,1.06h0Z"/>
      <path class="cls-2" d="M125.56,91.3c12.34.12,22.13,8.56,30.74,16.45.71.65,1.77-.41,1.06-1.06-8.92-8.16-19.03-16.76-31.8-16.89-.97,0-.97,1.49,0,1.5h0Z"/>
      <path class="cls-2" d="M69.14,47.86c10.2,4.29,16.13,14.25,20.41,23.94.39.88,1.68.12,1.3-.76-4.46-10.12-10.69-20.17-21.3-24.63-.89-.37-1.28,1.08-.4,1.45h0Z"/>
      <path class="cls-2" d="M48.83,80.77c1.04-7.18,4.13-13.99,8.88-19.49,4.77-5.53,12.07-11.21,19.79-10.54.96.08.96-1.42,0-1.5-7.97-.69-15.59,5.01-20.59,10.69s-8.42,12.87-9.51,20.44c-.14.94,1.31,1.35,1.45.4h0Z"/>
      <path class="cls-2" d="M59.78,89.01c1.97-7.19,6-13.58,10.85-19.18,4.54-5.24,10.44-11.73,17.97-11.56.97.02.97-1.48,0-1.5-7.84-.17-13.98,6.24-18.75,11.69-5.14,5.87-9.43,12.57-11.51,20.15-.26.93,1.19,1.33,1.45.4h0Z"/>
      <path class="cls-2" d="M114.48,133.35c7.37.09,14.7-1.86,21.05-5.61s12.13-9.75,16-16.2c2.11-3.51,3.51-7.44,3.28-11.58-.05-.96-1.55-.97-1.5,0,.26,4.62-1.65,8.84-4.2,12.58s-5.93,7.6-9.58,10.6c-7,5.74-16.01,8.82-25.05,8.71-.97-.01-.97,1.49,0,1.5h0Z"/>
      <path class="cls-2" d="M104.47,128.45c13.7-5.06,26.46-13.66,33.77-26.6,2-3.54,3.52-7.32,4.51-11.26.23-.94-1.21-1.34-1.45-.4-3.47,13.89-13.73,24.81-25.99,31.68-3.6,2.02-7.37,3.71-11.24,5.14-.9.33-.51,1.78.4,1.45h0Z"/>
      <path class="cls-2" d="M92.47,118.21c13.46-2.6,24.76-13.36,28.07-26.65.23-.94-1.21-1.34-1.45-.4-3.19,12.83-14.05,23.1-27.03,25.61-.95.18-.55,1.63.4,1.45h0Z"/>
      <path class="cls-2" d="M85.79,107.96c4.86-1.77,8.6-5.56,12.15-9.17,3.81-3.88,7.36-8.06,10.05-12.8.48-.84-.82-1.6-1.3-.76-2.57,4.53-5.92,8.51-9.55,12.22-3.42,3.5-7.06,7.35-11.76,9.06-.9.33-.51,1.78.4,1.45h0Z"/>
      <path class="cls-2" d="M75.52,92.93c3.17-7.89,10.66-12.68,17.96-16.32.86-.43.1-1.73-.76-1.3-7.7,3.84-15.32,8.92-18.65,17.22-.36.9,1.09,1.29,1.45.4h0Z"/>
      <path class="cls-2" d="M89.32,91.59c3.37-3.53,6.65-7.14,9.83-10.84.63-.73-.43-1.79-1.06-1.06-3.18,3.7-6.46,7.31-9.83,10.84-.67.7.39,1.76,1.06,1.06h0Z"/>
      <circle class="cls-5" cx="102.21" cy="80.17" r="65.13"/>
      <line class="cls-5" x1="149.25" y1="35.16" x2="55.69" y2="126.35"/>
    </g>
  </g>
</svg>