<?xml version="1.0" encoding="UTF-8"?>
<svg xmlns="http://www.w3.org/2000/svg" viewBox="0 0 200 200">
  <defs>
    <style>
      .cls-1 {
        fill: #d75035;
      }

      .cls-1, .cls-2, .cls-3 {
        stroke-width: 0px;
      }

      .cls-4 {
        isolation: isolate;
      }

      .cls-2, .cls-5 {
        fill: #f2e9d0;
      }

      .cls-3, .cls-6 {
        fill: #803020;
      }

      .cls-6, .cls-5 {
        stroke: #f2e9d0;
        stroke-miterlimit: 10;
      }

      .cls-7 {
        mix-blend-mode: saturation;
      }
    </style>
  </defs>
  <g class="cls-4">
    <g id="Layer_2" data-name="Layer 2">
      <g id="Circles">
        <g>
          <circle class="cls-1" cx="100" cy="100" r="99"/>
          <path class="cls-3" d="M100,2c54.04,0,98,43.96,98,98s-43.96,98-98,98S2,154.04,2,100,45.96,2,100,2M100,0C44.77,0,0,44.77,0,100s44.77,100,100,100,100-44.77,100-100S155.23,0,100,0h0Z"/>
        </g>
      </g>
      <g id="_Økologi" data-name="Økologi">
        <path class="cls-6" d="M118.53,56.33c-2.55,5.09-2.29,4.59-4.59,8.03-2.3,3.45-6.27,1.81-9.44.93-4.36-1.2-9.04-.98-13.37.24-5.94,1.67-11.88,5.13-16.29,9.44-9.85,9.63-13.51,25.15-8.79,38.11,2,5.49,5.59,9.9,9.61,14.03,2.94,3.02-3.15,10.19-4.67,12.79-1.82,3.12-3.64,6.23-5.46,9.35-1.53,2.61-2.9,6.05-5.12,8.16-2.15,2.03-6.17,1.53-8.91,1.52-3.55-.01-7.1-.29-10.64-.53-2.19-.15-4.22-.53-2.83-3.19,1.15-2.2,2.45-4.33,3.7-6.47,2.21-3.77,4.41-7.63,6.92-11.2.5-.71.92-1.53.84-2.39-.11-1.14-1-1.86-1.63-2.73-10.32-14.33-12.12-34.4-6.8-50.97,5.99-18.65,22.93-34.56,42.34-37.98,7.32-1.29,14.79-1.29,22.22-1.29,3.94,0,7.88,0,11.82,0,4.51,0,7.88,2.92,4.52,7.26l-3.44,6.88Z"/>
        <path class="cls-6" d="M79.07,144.86c2.55-5.09,2.29-4.59,4.59-8.03,2.3-3.45,6.27-1.81,9.44-.93,4.36,1.2,9.04.98,13.37-.24,5.94-1.67,11.88-5.13,16.29-9.44,9.85-9.63,13.51-25.15,8.79-38.11-2-5.49-5.59-9.9-9.61-14.03-2.94-3.02,3.15-10.19,4.67-12.79,1.82-3.12,3.64-6.23,5.46-9.35,1.53-2.61,2.9-6.05,5.12-8.16,2.15-2.03,6.17-1.53,8.91-1.52,3.55.01,7.1.29,10.64.53,2.19.15,4.22.53,2.83,3.19-1.15,2.2-2.45,4.33-3.7,6.47-2.21,3.77-4.41,7.63-6.92,11.2-.5.71-.92,1.53-.84,2.39.11,1.14,1,1.86,1.63,2.73,10.32,14.33,12.12,34.4,6.8,50.97-5.99,18.65-22.93,34.56-42.34,37.98-7.32,1.29-14.79,1.29-22.22,1.29-3.94,0-7.88,0-11.82,0-4.51,0-7.88-2.92-4.52-7.26l3.44-6.88Z"/>
        <rect class="cls-5" x="83.01" y="111.74" width="33.12" height="3.9"/>
        <circle class="cls-5" cx="99.57" cy="82.52" r="2.92"/>
        <path class="cls-2" d="M117.76,102.22c-1.09,1.61-2.29,3.18-3.66,4.57l1.06-.44h-32.14c-1.93,0-1.93,3,0,3h31.42c1.11,0,1.67-.29,2.39-1.08,1.29-1.42,2.45-2.95,3.53-4.53s-1.51-3.11-2.59-1.51h0Z"/>
        <path class="cls-2" d="M84.07,106.79c-1.52-1.54-2.65-3.38-3.68-5.27s-1.58-4.07-.61-6.05c.42-.86,1.15-1.87,2.02-2.33,1.01-.54,2.22-.21,3.23.18,2.11.83,4.02,1.93,6.23,2.53,4.24,1.15,8.74,1.14,13.03.25,2.21-.46,4.26-1.28,6.37-2.05,2-.73,4.25-1.36,6.18-.11,1.43.92,2.66,2.72,2.67,4.43,0,1.14-.98,2.7-1.74,3.87-1.06,1.62,1.54,3.12,2.59,1.51.99-1.51,1.97-3.14,2.13-4.98.17-1.99-.61-3.67-1.82-5.2-1.49-1.88-3.31-3.13-5.75-3.34-2.73-.23-5.23,1.05-7.73,1.93-5.1,1.8-10.74,2.17-15.94.55-2.59-.8-4.93-2.59-7.67-2.83s-4.72,1.36-6.08,3.55c-3.22,5.18.76,11.7,4.47,15.48,1.36,1.38,3.48-.74,2.12-2.12h0Z"/>
        <path class="cls-2" d="M95.19,106.5c-2.27-2.03-4.6-4.23-6.36-6.73-1.55-2.19-2.4-4.91-1.06-7.43,1.13-2.11,3.63-3.39,5.98-2.73,2.79.79,3.58,3.37,3.64,6,.09,3.78.05,7.54.26,11.32.11,1.92,3.11,1.93,3,0-.12-2.08-.2-4.17-.23-6.25-.03-1.97.06-3.96-.07-5.92-.23-3.53-1.83-6.56-5.26-7.85-3.06-1.15-6.69-.08-8.81,2.36-2.36,2.7-2.75,6.53-1.33,9.77.8,1.83,2.09,3.4,3.41,4.88,1.48,1.66,3.05,3.23,4.71,4.71,1.44,1.28,3.56-.83,2.12-2.12h0Z"/>
        <path class="cls-2" d="M100.84,95.88c.13-2.49.53-5.22,3.17-6.21,2.32-.87,4.93.18,6.45,2.03.95,1.17.51,2.51.07,3.82s-1.12,2.61-1.89,3.81c-1.67,2.6-3.89,4.79-6.07,6.96-1.37,1.37.75,3.49,2.12,2.12,2.2-2.2,4.4-4.43,6.17-7.01,1.59-2.32,3.07-5.24,3.19-8.1s-2.46-5.15-4.88-6.2-5.42-1-7.71.52c-2.83,1.89-3.46,5.07-3.63,8.25-.1,1.93,2.9,1.92,3,0h0Z"/>
        <g class="cls-7">
          <circle class="cls-2" cx="100" cy="100" r="100"/>
        </g>
      </g>
    </g>
  </g>
</svg>