<?xml version="1.0" encoding="UTF-8"?>
<svg id="Layer_2" data-name="Layer 2" xmlns="http://www.w3.org/2000/svg" viewBox="0 0 200 200">
  <defs>
    <style>
      .cls-1 {
        fill: #d75035;
      }

      .cls-1, .cls-2, .cls-3 {
        stroke-width: 0px;
      }

      .cls-2 {
        fill: #f2e9d0;
      }

      .cls-3 {
        fill: #803020;
      }
    </style>
  </defs>
  <g id="Circles">
    <g>
      <path class="cls-1" d="M100,199c-18.22,0-36.02-4.99-51.48-14.42C18.76,166.43,1,134.81,1,100,1,45.41,45.41,1,100,1s99,44.41,99,99c0,35.23-18.97,68.09-49.5,85.75-14.98,8.67-32.09,13.25-49.5,13.25Z"/>
      <path class="cls-3" d="M100,2c54.04,0,98,43.96,98,98,0,17.51-4.67,34.7-13.51,49.69-8.58,14.56-20.86,26.73-35.49,35.2-14.83,8.58-31.77,13.11-49,13.11s-35.66-4.94-50.96-14.28c-14.09-8.59-25.89-20.7-34.1-35.01-8.47-14.75-12.94-31.6-12.94-48.71C2,45.96,45.96,2,100,2M100,0C44.77,0,0,44.77,0,100c0,36.19,19.22,67.88,48,85.43,15.15,9.25,32.95,14.57,52,14.57s35.29-4.87,50-13.38c29.89-17.29,50-49.6,50-86.62C200,44.77,155.23,0,100,0h0Z"/>
    </g>
  </g>
  <g id="Person">
    <g>
      <path class="cls-3" d="M100.49,195.5c-17.73,0-34.63-4.55-48.99-13.19v-66.33c0-8.54,6.79-15.48,15.12-15.48h65.75c8.34,0,15.12,6.95,15.12,15.48l-.97,67.16c-14.51,8.31-29.59,12.35-46.04,12.35Z"/>
      <path class="cls-2" d="M132.37,103c6.95,0,12.61,5.81,12.63,12.95l-.95,65.72c-13.74,7.62-28.02,11.33-43.56,11.33-16.78,0-32.79-4.18-46.49-12.11v-64.9c0-7.16,5.66-12.98,12.63-12.98h65.75M132.37,98h-65.75c-9.73,0-17.63,8.05-17.63,17.98v67.73c15,9.35,32.63,14.29,51.49,14.29s33.95-4.8,48.52-13.4l.99-68.61c0-9.93-7.89-17.98-17.63-17.98h0Z"/>
    </g>
    <g>
      <circle class="cls-3" cx="99.5" cy="62.75" r="34.75"/>
      <path class="cls-2" d="M99.5,30.5c17.78,0,32.25,14.47,32.25,32.25s-14.47,32.25-32.25,32.25-32.25-14.47-32.25-32.25,14.47-32.25,32.25-32.25M99.5,25.5c-20.57,0-37.25,16.68-37.25,37.25s16.68,37.25,37.25,37.25,37.25-16.68,37.25-37.25-16.68-37.25-37.25-37.25h0Z"/>
    </g>
  </g>
</svg>