<?xml version="1.0" encoding="UTF-8"?>
<svg xmlns="http://www.w3.org/2000/svg" viewBox="0 0 200 200">
  <defs>
    <style>
      .cls-1 {
        fill: #d75035;
      }

      .cls-1, .cls-2, .cls-3 {
        stroke-width: 0px;
      }

      .cls-4 {
        font-family: OptimaLTPro-Bold, 'Optima LT Pro';
        font-size: 24px;
        font-weight: 700;
      }

      .cls-4, .cls-2 {
        fill: #f2e9d0;
      }

      .cls-5 {
        isolation: isolate;
      }

      .cls-6 {
        letter-spacing: -.05em;
      }

      .cls-3 {
        fill: #803020;
      }

      .cls-7 {
        fill: none;
        stroke: #4d1d13;
        stroke-miterlimit: 10;
        stroke-width: 4px;
      }

      .cls-8 {
        mix-blend-mode: saturation;
      }
    </style>
  </defs>
  <g class="cls-5">
    <g id="Layer_2" data-name="Layer 2">
      <g id="Skaldyr">
        <g id="Skaldyr-2" data-name="Skaldyr">
          <g>
            <circle class="cls-1" cx="100" cy="100" r="99"/>
            <path class="cls-3" d="M100,2c54.04,0,98,43.96,98,98s-43.96,98-98,98S2,154.04,2,100,45.96,2,100,2M100,0C44.77,0,0,44.77,0,100s44.77,100,100,100,100-44.77,100-100S155.23,0,100,0h0Z"/>
          </g>
          <g>
            <path class="cls-3" d="M115.35,128.17c2.4,2.49,2.19,6.34,1.77,9.64s-1.99,6.39-3.93,9.19c4.57-1.58,8.89-4.09,11.69-7.75s3.87-8.6,2-12.74c-.65-1.43-1.3-3.18-2.92-3.6"/>
            <path class="cls-2" d="M114.29,129.23c1.92,2.11,1.71,5.25,1.41,7.89-.38,3.37-1.91,6.35-3.8,9.12-.72,1.06.48,2.63,1.69,2.2,5.8-2.04,11.73-5.56,14.35-11.4,1.24-2.77,1.73-5.82,1.09-8.81-.55-2.61-1.95-5.88-4.67-6.77-1.84-.6-2.63,2.3-.8,2.89.97.32,1.38,1.48,1.77,2.33.47,1.03.83,2.1.94,3.23.24,2.43-.41,4.88-1.62,6.98-2.52,4.37-7.24,7.04-11.86,8.66l1.69,2.2c2.29-3.36,3.83-6.92,4.25-10.98.35-3.43.1-7-2.33-9.66-1.3-1.43-3.42.7-2.12,2.12h0Z"/>
          </g>
          <g>
            <path class="cls-3" d="M57.3,129.11c-2.21,2.8-3.38,6.28-3.27,9.73.94.32,1.96-.18,2.8-.69,2.93-1.76,5.85-4.08,6.48-7.24"/>
            <path class="cls-2" d="M56.24,128.05c-2.41,3.09-3.81,6.84-3.71,10.79.02.67.45,1.26,1.1,1.45,1.51.44,2.95-.22,4.22-1,1.05-.65,2.07-1.36,3.02-2.15,1.82-1.5,3.39-3.48,3.89-5.83.16-.77-.23-1.66-1.05-1.85-.75-.17-1.67.23-1.85,1.05-.05.23-.11.47-.18.69-.04.11-.07.23-.12.34-.02.05-.15.33-.04.1-.2.43-.44.85-.71,1.24-.06.08-.11.16-.17.24.14-.19-.05.07-.08.1-.16.19-.32.38-.49.56-.34.37-.71.71-1.09,1.04-.17.15-.35.3-.53.44-.39.31.1-.07-.13.1-.1.08-.21.15-.31.23-.42.3-.85.59-1.29.87s-.91.58-1.39.81c-.16.08-.25.1-.51.16-.08.02-.28,0-.4-.03l1.1,1.45c-.05-1.71.14-2.99.68-4.63.27-.81.47-1.28.88-2.05.19-.36.4-.72.63-1.07.12-.19.24-.37.37-.55.05-.07.32-.44.26-.36.5-.64.62-1.5,0-2.12-.52-.52-1.62-.64-2.12,0h0Z"/>
          </g>
          <g>
            <path class="cls-3" d="M64.12,116.55c-2.23,2.41-4,5.18-5.18,8.14-.49,1.23-.86,2.69-.06,3.78.63.86,1.8,1.21,2.89,1.51.34.09.7.19,1.06.13.3-.05.56-.22.81-.38,3.32-2.23,5.62-5.7,6.24-9.43"/>
            <path class="cls-2" d="M63.06,115.49c-1.63,1.77-3.07,3.73-4.21,5.86-1.05,1.95-2.43,4.51-1.78,6.79.34,1.17,1.23,2.08,2.32,2.59,1,.47,2.3.97,3.43.88,1.24-.11,2.32-1.08,3.23-1.85.8-.68,1.52-1.45,2.17-2.28,1.55-1.98,2.66-4.29,3.09-6.78.14-.8-.21-1.62-1.05-1.85-.72-.2-1.71.25-1.85,1.05-.56,3.25-2.37,6.19-5.02,8.16-.17.13-.35.25-.53.37-.09.06-.19.13-.29.18-.24.12-.02.02.02.02-.35,0-.78-.18-1.12-.29-.55-.17-1.33-.4-1.53-.99-.22-.64.12-1.47.34-2.06.32-.84.71-1.64,1.13-2.43,1.02-1.91,2.28-3.66,3.74-5.25,1.31-1.42-.81-3.55-2.12-2.12h0Z"/>
          </g>
          <g>
            <path class="cls-3" d="M135.16,130.5c.74,2.79,2.86,5.48,5.53,6.98.61-3.81,1.47-6.98-1.53-10.98"/>
            <path class="cls-2" d="M133.72,130.9c.91,3.31,3.26,6.18,6.22,7.88.76.44,2.05.08,2.2-.9.31-1.94.75-3.92.64-5.9-.13-2.29-.96-4.4-2.32-6.24-.48-.65-1.3-.98-2.05-.54-.64.38-1.02,1.4-.54,2.05.59.8,1.15,1.71,1.45,2.55.15.41.26.83.35,1.26.02.1.04.21.06.31.04.26-.02-.19,0,.07.02.23.04.46.05.69.03.82-.03,1.65-.14,2.47.03-.2-.04.3-.06.38-.04.24-.08.48-.11.71-.08.46-.15.92-.23,1.38l2.2-.9c-2.32-1.33-4.15-3.56-4.84-6.09-.21-.78-1.06-1.26-1.85-1.05s-1.26,1.06-1.05,1.85h0Z"/>
          </g>
          <g>
            <path class="cls-3" d="M128.86,119.2c.41,3.78,2.27,7.41,5.17,10.11.11.11.24.22.4.24.23.03.43-.14.61-.28.88-.7,2.12-.99,2.9-1.79,1.21-1.26.79-3.22.06-4.76-1.42-2.97-3.78-5.55-6.72-7.36"/>
            <path class="cls-2" d="M127.36,119.2c.28,2.44,1.01,4.77,2.23,6.91.63,1.1,1.4,2.14,2.24,3.09s1.84,2.16,3.25,1.74c.54-.16.95-.59,1.44-.85s1.04-.5,1.53-.81c1.05-.67,1.84-1.66,2.06-2.9.42-2.37-.79-4.73-2.08-6.62-1.58-2.31-3.62-4.23-5.99-5.71-1.64-1.02-3.15,1.57-1.51,2.59,1.95,1.22,3.69,2.81,4.98,4.72.78,1.16,2.67,3.94,1.24,5.19-.38.33-.9.52-1.34.75-.26.13-.51.26-.75.42-.12.08-.24.16-.35.25-.62.38-.35.47.8.28-.08-.21-.5-.49-.66-.65-.21-.22-.42-.45-.62-.68-.37-.43-.71-.87-1.02-1.34-1.27-1.9-2.16-4.09-2.43-6.37-.09-.8-.62-1.5-1.5-1.5-.74,0-1.59.69-1.5,1.5h0Z"/>
          </g>
          <g>
            <path class="cls-3" d="M48.28,118.39c-2.63,2.44-4.18,5.82-4.26,9.24,3.76-.51,7.2-2.71,9.01-5.77"/>
            <path class="cls-2" d="M47.22,117.33c-2.84,2.67-4.59,6.39-4.7,10.3-.01.47.23.9.59,1.18.41.32.81.34,1.31.27,4.02-.57,7.8-2.97,9.91-6.46.4-.67.17-1.68-.54-2.05s-1.62-.18-2.05.54c-.12.19-.24.38-.36.57-.05.07-.1.15-.16.22,0,0-.23.31-.13.17s-.15.17-.14.17c-.06.07-.12.14-.18.21-.15.17-.31.34-.47.5-.31.31-.63.6-.97.88-.04.03-.29.22-.08.06-.08.06-.15.11-.23.16-.19.14-.38.27-.58.39-.36.23-.73.43-1.1.62-.21.11-.42.21-.64.3.14-.06.06-.03-.03.01-.11.04-.22.09-.33.13-.88.32-1.78.54-2.7.67l1.9,1.45c0-.19.01-.39.03-.58,0-.12.02-.24.03-.36,0-.03.03-.31.02-.16s.02-.13.02-.16c.02-.1.03-.19.05-.29.04-.21.08-.43.14-.64.1-.4.21-.8.35-1.19.06-.18.13-.37.2-.55,0-.02.12-.28.06-.16-.06.13.11-.23.1-.22.34-.74.76-1.44,1.23-2.1.07-.1.14-.2.22-.3-.1.13,0,0,.04-.05.13-.15.25-.31.39-.46.3-.34.62-.66.95-.97.57-.54.58-1.59,0-2.12-.61-.56-1.51-.57-2.12,0h0Z"/>
          </g>
          <g>
            <path class="cls-3" d="M56.59,108.08c-3.11,2.16-5.6,5.05-7.16,8.32-.13.28-.27.59-.2.89.06.29.29.53.52.74.79.77,1.58,1.54,2.37,2.31.28.27.58.55.97.62.57.1,1.09-.27,1.52-.63,2.72-2.27,5-4.98,6.7-7.97"/>
            <path class="cls-2" d="M55.83,106.79c-1.75,1.23-3.37,2.65-4.73,4.3-.68.82-1.31,1.68-1.87,2.58s-1.26,1.96-1.46,3.01c-.27,1.44.81,2.33,1.74,3.23.8.78,1.61,1.83,2.63,2.31,1.39.66,2.64-.06,3.7-.95.81-.69,1.59-1.42,2.33-2.19,1.71-1.79,3.21-3.8,4.44-5.94.96-1.68-1.63-3.19-2.59-1.51-1.09,1.91-2.39,3.66-3.9,5.26-.76.8-1.56,1.56-2.4,2.27-.12.1-.3.21-.41.32.1-.11.3.35,0-.04-.36-.47-.9-.87-1.32-1.29-.12-.12-1.26-1.32-1.32-1.29.17-.1-.15.77.14.13.11-.25.25-.49.38-.73.49-.91,1.05-1.79,1.68-2.61,1.25-1.63,2.79-3.08,4.47-4.26.66-.46.97-1.31.54-2.05-.38-.66-1.39-1.01-2.05-.54h0Z"/>
          </g>
          <g>
            <path class="cls-3" d="M146.16,120.5c1.18,3.35,4.31,7.13,6.52,8.58,1.26-4.39,1.48-10.58-2.52-12.58"/>
            <path class="cls-2" d="M144.72,120.9c.74,2.04,1.87,3.88,3.2,5.58,1.15,1.47,2.46,2.85,4.01,3.9.82.55,1.95-.01,2.2-.9,1.3-4.58,1.8-11.68-3.21-14.28-.72-.37-1.63-.19-2.05.54-.39.67-.18,1.68.54,2.05.91.47,1.32.9,1.79,1.78.05.09.09.17.13.26.2.42-.09-.25.08.19.09.24.17.48.24.72s.13.5.18.76c.03.16.06.31.08.47-.03-.2,0,.09.02.16.23,2.34-.06,4.34-.69,6.55l2.2-.9c-.5-.34-.96-.74-1.51-1.28-.63-.62-1.23-1.29-1.77-1.99-1.03-1.33-1.99-2.87-2.55-4.42-.27-.76-1.02-1.27-1.85-1.05-.74.2-1.32,1.08-1.05,1.85h0Z"/>
          </g>
          <g>
            <path class="cls-3" d="M138.3,111.23c.71,3.61,4.45,5.98,6.36,9.2.14.24.36.52.64.46.13-.03.23-.12.32-.21.89-.85,1.77-1.7,2.66-2.55.74-.7,1.5-1.46,1.72-2.41.14-.6-.04-.98-.19-1.58-.63-2.59-1.68-3.49-3.83-5.26-1.17-.96-3.32-2.28-4.79-1.75"/>
            <path class="cls-2" d="M136.85,111.63c.52,2.44,2.17,4.36,3.79,6.16.75.83,1.53,1.65,2.18,2.56.36.51.64,1.1,1.11,1.52.77.69,1.84.64,2.61,0,1.14-.96,2.23-2.07,3.28-3.13s1.9-2.36,1.69-3.9c-.32-2.35-1.45-4.4-3.21-5.97-1.92-1.71-4.71-4.05-7.49-3.19-1.84.57-1.05,3.46.8,2.89.28-.09.4-.08.59-.05.29.05.58.15.85.26.6.26,1.33.72,1.76,1.05.98.76,2.19,1.76,2.75,2.64.35.55.51.93.69,1.56.2.69.47,1.25.06,1.88s-1.08,1.17-1.64,1.7c-.38.36-.76.73-1.14,1.09-.29.27-.66.74-.97.88l.76-.2h-.16c.25.06.5.13.76.2,0,.04.03.06.06.08-.07-.11-.14-.22-.21-.34-.13-.19-.26-.39-.39-.57-.33-.46-.68-.9-1.04-1.33-.61-.73-1.26-1.42-1.89-2.13-1.18-1.32-2.31-2.71-2.68-4.46-.17-.79-1.1-1.25-1.85-1.05-.82.23-1.22,1.05-1.05,1.85h0Z"/>
          </g>
          <g>
            <path class="cls-3" d="M154.16,102.5c1.96,2.27,6.6,5.67,9.64,6.46.14.04.29.07.43.04.4-.09.45-.58.41-.96-.63-5.33-4.33-10.27-9.53-12.72"/>
            <path class="cls-2" d="M153.1,103.56c1.36,1.55,3.03,2.85,4.72,4.02s3.54,2.3,5.51,2.8c1.62.42,2.92-.68,2.81-2.34-.07-1.1-.35-2.23-.7-3.27-.74-2.22-1.92-4.24-3.42-6.02-1.68-1.98-3.81-3.61-6.15-4.73-.73-.35-1.62-.2-2.05.54-.38.66-.2,1.7.54,2.05,2.39,1.15,4.55,2.83,6.12,4.99.74,1.02,1.39,2.14,1.84,3.31.24.61.43,1.24.58,1.88.08.32.14.64.2.96,0,.02.08.38.04.28.1.27-.1.09.18-.17l.66-.39c.26.04.29.03.07-.02-.1-.03-.2-.06-.29-.09-.21-.07-.41-.14-.61-.22-.28-.11-.73-.33-1.11-.52-.91-.47-1.78-1.01-2.63-1.59-1.52-1.04-2.98-2.22-4.2-3.61-.53-.61-1.58-.55-2.12,0-.61.61-.53,1.51,0,2.12h0Z"/>
          </g>
          <g>
            <path class="cls-3" d="M143.46,100.46c2.92,1.46,6.13,2.43,9.43,2.85.31.04.64.07.91-.08.37-.21.45-.67.48-1.07.16-1.85.32-3.72-.05-5.54-.09-.46-.22-.92-.52-1.29-.42-.53-1.12-.8-1.78-1.04-1.84-.66-3.72-1.25-5.62-1.76-1.47-.39-3.31-.64-4.3.43"/>
            <path class="cls-2" d="M142.7,101.75c2.22,1.09,4.55,1.95,6.96,2.5,1.17.27,2.49.62,3.7.59,1.58-.04,2.27-1.27,2.42-2.67.13-1.26.22-2.55.16-3.82s-.18-2.72-.93-3.77-1.95-1.48-3.12-1.89c-1.26-.44-2.53-.85-3.82-1.22-2.29-.66-5.2-1.48-7.12.44-1.37,1.37.75,3.49,2.12,2.12.16-.16.22-.21.49-.27.08-.02.16-.04.24-.05-.04,0-.16.02.01,0,.2-.01.4-.01.6,0,.66.03,1.53.27,2.3.49.98.27,1.96.57,2.93.89.83.27,1.74.5,2.51.91.6.32.65.98.73,1.65.11,1.03.07,2.09,0,3.12-.03.46-.05.93-.11,1.39.02-.16,0-.02,0-.02l-.02.08c.05-.11.14-.18.26-.22.38-.26.17-.16-.13-.19-.89-.11-1.77-.29-2.65-.5-2.08-.49-4.11-1.2-6.03-2.15-.73-.36-1.62-.2-2.05.54-.39.66-.19,1.69.54,2.05h0Z"/>
          </g>
          <g>
            <path class="cls-3" d="M44.16,100.5c-5,1-6.88,5.63-8.5,8.92,3.77-.27,8.5-1.92,9.5-3.92"/>
            <path class="cls-2" d="M43.76,99.05c-2.48.51-4.6,1.97-6.14,3.94-1.36,1.74-2.29,3.7-3.25,5.67-.46.94.08,2.35,1.3,2.26,2.15-.16,4.31-.61,6.32-1.42,1.66-.67,3.61-1.58,4.48-3.25.36-.69.2-1.66-.54-2.05-.69-.37-1.66-.2-2.05.54-.03.05-.17.36-.22.36.03,0,.25-.28.03-.06-.06.06-.11.12-.17.17-.11.11-.24.2-.34.31-.12.12.23-.16,0,0-.08.05-.16.11-.23.16-.32.21-.66.41-1.01.58-.2.1-.4.19-.6.28-.25.12.08-.03-.08.04-.11.04-.22.09-.32.13-.86.33-1.75.59-2.65.8-.48.11-.96.2-1.45.28-.1.02-.19.03-.29.04.28-.04-.05,0-.1.01-.26.03-.51.05-.77.07l1.3,2.26c.42-.85.82-1.7,1.26-2.54.48-.92,1.07-1.76,1.62-2.64.06-.09.05-.06-.06.07.05-.06.1-.12.15-.19.07-.09.15-.18.23-.27.17-.2.34-.39.52-.57s.37-.36.57-.53c.09-.08.18-.15.28-.23-.27.22.07-.05.13-.09.45-.31.92-.56,1.41-.8.1-.04.08-.04-.06.02.08-.03.16-.06.24-.09.12-.05.25-.09.38-.13.31-.1.62-.17.93-.24.77-.16,1.29-1.11,1.05-1.85-.26-.81-1.02-1.22-1.85-1.05h0Z"/>
          </g>
          <g>
            <path class="cls-3" d="M56.7,94.38c-2.34-.15-4.67.52-6.74,1.54s-3.9,2.38-5.72,3.74c-.14.11-.29.22-.35.38-.06.16,0,.33.04.49.47,1.6.93,3.2,1.4,4.81.04.13.08.26.18.36.23.22.63.12.94,0,3.59-1.38,7.07-2.99,10.42-4.83"/>
            <path class="cls-2" d="M56.7,92.88c-4.95-.25-9.22,2.49-13.02,5.34-.51.38-1.05.76-1.23,1.42s.06,1.36.25,2.01c.35,1.2.7,2.4,1.05,3.6.19.66.39,1.35,1.01,1.74s1.28.39,1.94.21c1.18-.33,2.35-.92,3.47-1.41,2.54-1.09,5.03-2.3,7.46-3.63,1.69-.93.18-3.52-1.51-2.59s-3.53,1.85-5.34,2.69c-.85.39-1.7.77-2.56,1.12-.45.19-.91.37-1.36.55-.23.09-.46.18-.69.27-.09.04-.18.07-.28.1-.35.07-.22.1.37.1l.54.54c-.16-.23-.22-.67-.31-.96-.12-.4-.23-.8-.35-1.2-.22-.77-.36-1.68-.7-2.4l-.07-.24-.22.69s.27-.19.31-.23c.31-.23.63-.47.95-.7.64-.46,1.28-.91,1.94-1.34,2.51-1.62,5.29-2.84,8.34-2.69.81.04,1.5-.72,1.5-1.5,0-.85-.69-1.46-1.5-1.5h0Z"/>
          </g>
          <g>
            <path class="cls-3" d="M150.28,59.43c2.87-4.87,2.96-10.9.8-16.07s-6.42-9.47-11.5-12.46-10.95-4.72-16.91-5.62c-2.07-.31-4.27-.52-6.19.25-2.45.98-3.93,3.33-6.23,4.59,7.28.34,14.37,3.3,19.45,8.09-2.09,1.53-4.94,1.95-7.6,1.72s-5.22-1.02-7.8-1.68c-.26-.07-.55-.13-.78,0-.27.15-.32.5-.3.79.07,1.76.98,3.42,2.23,4.75s2.81,2.38,4.39,3.38c5.53,3.51,11.4,6.58,17.5,9.17"/>
            <path class="cls-2" d="M151.57,60.19c4.6-8.03,2.36-17.69-3.56-24.36-6.35-7.15-15.9-10.69-25.16-12.03-2.65-.38-5.36-.54-7.8.75-2.09,1.1-3.52,3.09-5.55,4.28-1.33.78-.69,2.72.76,2.8,6.78.37,13.4,3.01,18.39,7.65l.3-2.36c-3.72,2.58-8.39,1.44-12.43.37-1.78-.47-4.53-1.3-4.78,1.46-.17,1.9.86,3.88,1.99,5.32,2.61,3.32,6.86,5.43,10.47,7.47,4.01,2.27,8.16,4.3,12.4,6.1,1.76.75,3.29-1.84,1.51-2.59-3.82-1.63-7.56-3.43-11.19-5.43-3.31-1.82-7.03-3.68-9.8-6.29-.68-.64-1.27-1.33-1.73-2.15-.24-.43-.43-.87-.54-1.34-.06-.2-.1-.39-.1-.6.01-.52-.27-.37-.83.45.08.26,2.9.77,3.18.84.91.23,1.83.44,2.75.6,3.6.62,7.52.52,10.62-1.63.76-.53,1.06-1.65.3-2.36-5.59-5.2-12.91-8.12-20.51-8.53l.76,2.8c1.57-.92,2.79-2.23,4.19-3.36,1.69-1.37,3.54-1.67,5.67-1.49,4.37.37,8.85,1.57,12.92,3.18,7.19,2.85,14.23,8.27,16.53,15.95,1.3,4.35.93,9.03-1.34,12.99-.96,1.68,1.63,3.19,2.59,1.51h0Z"/>
          </g>
          <g>
            <path class="cls-3" d="M135.61,70.88c-1.57-2.92-2.26-6.22-1.98-9.47.13-1.47.5-3.01,1.63-4.06,1.12-1.04,2.8-1.4,4.39-1.47,2.77-.12,5.61.55,7.85,2.05s3.83,3.85,4.09,6.38c.15,1.52-.16,3.05-.48,4.56-.65,3.12-1.33,6.3-2.97,9.11"/>
            <path class="cls-2" d="M136.9,70.12c-.91-1.74-1.54-3.64-1.75-5.59-.18-1.6-.25-3.52.4-5.02,1.38-3.23,6.9-2.28,9.4-1.24,3.26,1.35,5.48,4.32,5.11,7.91-.2,1.89-.69,3.82-1.16,5.66s-1.1,3.68-2.06,5.37,1.64,3.19,2.59,1.51c1.86-3.27,2.7-7.03,3.37-10.7s.03-7.08-2.64-9.82c-4.21-4.31-15.6-6.47-17.7,1.12-1.12,4.05-.05,8.69,1.85,12.32.9,1.71,3.49.2,2.59-1.51h0Z"/>
          </g>
          <g>
            <path class="cls-3" d="M140.91,86.95c2.61-.37,5.54-.92,6.94-2.97,1.11-1.63.87-3.82-.16-5.49s-2.72-2.93-4.47-3.99c-2.68-1.62-5.93-2.94-9.04-2.18-.79.19-1.54.52-2.14,1.03-1.07.91-1.52,2.31-1.49,3.65s.5,2.63,1.03,3.88"/>
            <path class="cls-2" d="M141.31,88.39c2.57-.37,5.54-.91,7.32-2.99,2.07-2.42,1.73-5.89-.1-8.34s-4.75-4.22-7.57-5.39-6.51-1.71-9.25.06c-3.37,2.18-2.92,6.31-1.57,9.54.31.75.99,1.28,1.85,1.05.71-.19,1.36-1.09,1.05-1.85-.56-1.34-1.2-2.86-.91-4.34.26-1.33,1.2-2.06,2.47-2.37,3-.74,6.15.89,8.59,2.48,1.97,1.28,4.8,3.71,3.7,6.4-.92,2.27-4.3,2.57-6.37,2.87-.8.11-1.24,1.14-1.05,1.85.24.86,1.04,1.16,1.85,1.05h0Z"/>
          </g>
          <g>
            <path class="cls-3" d="M48.92,62.78c-3.17-4.96-2.72-11.4.09-16.53,2.81-5.13,8.35-11.59,13.69-14.59,4.67-2.63,8.24-4.21,13.4-4.39,1.47-.05,5.64.78,6.7,1.75-7.66,1.75-9.3,6.7-11.74,11.85,3.88-1.56,7.92-2.77,12.05-3.62.24-.05.51-.1.73,0,.37.17.4.63.38,1.01-.33,4.83-2.6,9.54-6.29,13.01-3.68,3.47-5.17,5.37-10.44,5.82-2.4.2-5.35,1.12-7.66,1.75"/>
            <path class="cls-2" d="M50.21,62.03c-2-3.23-2.44-7.07-1.55-10.75s2.94-6.73,5.19-9.57c4.63-5.85,10.94-10.81,18.37-12.46,1.72-.38,3.54-.62,5.3-.37,1.24.18,3.26.41,4.23,1.21l.66-2.51c-3.25.78-6.25,2.31-8.4,4.93-1.87,2.27-3,4.97-4.24,7.61-.49,1.04.35,2.74,1.69,2.2,2.16-.86,4.36-1.62,6.6-2.27,1.05-.3,2.1-.58,3.16-.84.53-.13,1.35-.16,1.83-.41.74-.05.63-.23-.34-.53l-.03.39c-.18.41-.14,1.1-.23,1.55-.1.52-.23,1.03-.37,1.53-.26.89-.57,1.77-.97,2.61-.83,1.77-1.92,3.42-3.25,4.85-1.96,2.12-4.36,4.76-7.16,5.75-1.68.59-3.46.61-5.2.92-2.06.36-4.07.98-6.08,1.54-1.86.52-1.07,3.41.8,2.89s3.62-1.05,5.47-1.42c1.68-.34,3.41-.36,5.07-.81,2.76-.75,4.84-2.51,6.87-4.44,2.64-2.51,4.94-5.11,6.4-8.5.71-1.64,1.22-3.34,1.48-5.1.22-1.48.55-3.62-1.28-4.22-1.03-.34-2.35.16-3.35.39-1.14.27-2.27.56-3.39.88-2.31.66-4.59,1.45-6.82,2.34l1.69,2.2c1.09-2.31,2.06-4.77,3.62-6.81,1.81-2.37,4.37-3.66,7.22-4.34,1.03-.25,1.54-1.79.66-2.51-2.42-1.98-6.47-2.38-9.47-2.08-4.43.45-8.4,2.2-12.25,4.37s-6.92,5.12-9.65,8.39-5.25,6.82-6.47,10.88c-1.41,4.68-.99,9.83,1.6,14.02,1.01,1.64,3.61.13,2.59-1.51h0Z"/>
          </g>
          <g>
            <path class="cls-3" d="M52.76,80.81c-3.61-2.43-5.32-6.76-5.1-10.86s1.07-6.8,3.55-10.22c.24-.34,1.56-.64,1.91-.88.5-.33,2.87-.88,3.83-.88s2.33.52,3.97,2.01c1.55,1.41,2.85,3.1,3.48,5.01s.54,4.07-.52,5.83"/>
            <path class="cls-2" d="M53.52,79.52c-2.88-2.01-4.39-5.46-4.37-8.92,0-1.68.22-3.39.7-5,.24-.81.55-1.59.94-2.34.37-.71.87-1.94,1.5-2.44.34-.27,1.16-.47,1.6-.66.33-.14,1.02-.33,1.52-.44,1.25-.28,2.09-.3,3.22.39,3.17,1.95,6.02,6.32,3.97,9.97-.95,1.69,1.64,3.2,2.59,1.51,2.06-3.66.97-7.8-1.55-10.92-1.2-1.49-2.73-2.9-4.5-3.67-1.34-.58-2.56-.56-3.97-.29-1.27.24-2.39.7-3.56,1.16-1.68.65-2.51,2.18-3.33,3.73-1.63,3.08-2.4,6.84-2.06,10.31.39,4.13,2.38,7.82,5.8,10.21,1.59,1.11,3.09-1.49,1.51-2.59h0Z"/>
          </g>
          <g>
            <path class="cls-3" d="M57.69,87.62c-2.16.02-3.89-1.9-4.14-3.86s.63-3.9,1.68-5.62c.72-1.17,1.53-2.29,2.43-3.35.81-.96,1.73-1.9,2.93-2.44,1.99-.89,4.51-.44,6.23.84s2.7,3.27,2.97,5.28"/>
            <path class="cls-2" d="M57.69,86.12c-2.14-.05-2.98-2.39-2.54-4.19.6-2.46,2.39-4.83,4.07-6.66.75-.82,1.58-1.52,2.68-1.79.99-.24,2.12-.08,3.04.33,2.04.9,3.08,2.94,3.4,5.05.12.8,1.13,1.24,1.85,1.05.86-.24,1.17-1.04,1.05-1.85-.38-2.5-1.69-4.78-3.76-6.25s-4.79-1.88-7.07-1.02c-2.49.94-4.2,3.22-5.67,5.34-1.57,2.27-3.04,4.96-2.67,7.81s2.75,5.09,5.61,5.17c1.93.05,1.93-2.95,0-3h0Z"/>
          </g>
          <g>
            <path class="cls-3" d="M81.85,75.53c-.96-.88-1.08-3.26-.44-4.25s1.82-1.56,3.01-1.91c1.74-.51,3.7-.63,5.35.1s2.84,2.45,2.45,4.08"/>
            <path class="cls-2" d="M82.91,74.47c-.05-.05-.1-.1-.15-.16.12.15.13.16.04.02-.03-.07-.17-.4-.06-.09-.05-.12-.09-.25-.12-.38-.01-.05-.1-.5-.08-.34s-.02-.3-.02-.35c0-.14,0-.27,0-.41,0-.12.05-.39,0-.12.03-.16.08-.31.11-.47.06-.27-.15.18.02-.04.02-.02.22-.3.11-.16.27-.32.35-.37.71-.58.58-.34,1.15-.53,1.88-.71,1.29-.31,2.81-.37,3.95.23.55.29.9.61,1.16,1.02.03.05.27.54.18.31.05.14.08.28.13.42.1.32.04-.16.02.17,0,.1,0,.19,0,.29.03-.16.02-.15-.01.04-.17.79.23,1.62,1.05,1.85.74.2,1.68-.25,1.85-1.05.35-1.69-.22-3.34-1.42-4.56s-3-1.85-4.75-1.93c-2.89-.13-7.33,1.1-7.88,4.44-.26,1.59-.03,3.5,1.17,4.69,1.38,1.35,3.5-.77,2.12-2.12h0Z"/>
          </g>
          <g>
            <path class="cls-3" d="M105.78,73.77s-.49-1.55,0-2.63c.5-1.1,1.51-1.72,2.8-1.57,1.4.17,2.7.02,3.9.69.92.51,1.67,1.67,1.91,2.63s-.96,2.63-.96,2.63"/>
            <path class="cls-2" d="M107.23,73.38c-.04-.15-.23-.63-.16-.75,0-.01.02.32.02.13,0-.06-.01-.12-.01-.17,0-.14-.01-.28,0-.42,0-.06.01-.12.01-.18,0,.02-.06.26-.01.09.04-.14.07-.28.12-.42-.08.24,0,.04.06-.07.04-.07.09-.13.13-.19-.02.03-.18.18-.06.08.08-.06.18-.16.24-.24.09-.12-.06.05-.09.06.06-.04.12-.08.19-.12.05-.03.1-.05.15-.08.13-.09-.08.04-.1.04.12-.02.27-.06.38-.1.15-.05-.08.02-.11.01.06,0,.12,0,.18,0,.15,0,.29,0,.44.02.63.06,1.26.09,1.88.14.09,0,.19.02.28.03-.03,0-.23-.04-.05,0,.13.03.27.05.41.08s.27.09.4.12c.16.04,0,0-.03-.02.09.04.18.08.26.13.07.04.14.09.21.13-.02-.01-.18-.16-.05-.04.1.09.19.17.29.26.04.04.27.3.19.2-.1-.12.03.05.04.06.06.09.12.18.18.28.07.11.13.23.19.34.03.06.06.12.08.17-.01-.02-.08-.23-.03-.07.03.11.06.24.11.34.07.15-.03-.14-.01-.18-.02.04,0,.18,0,.22.01.15,0-.16.02-.16,0,0-.04.18-.04.19-.03.12-.08.23-.11.34-.04.17.05-.12.05-.12,0,.06-.06.14-.09.19-.06.12-.12.23-.18.35-.13.24-.27.48-.43.7-.46.64-.13,1.7.54,2.05.77.41,1.57.15,2.05-.54.6-.84,1.06-1.83,1.17-2.86.09-.77-.23-1.54-.58-2.2s-.87-1.34-1.48-1.82c-.72-.56-1.54-.92-2.44-1.07-.84-.14-1.69-.15-2.54-.23s-1.65-.02-2.45.34c-.71.32-1.29.87-1.71,1.52-.79,1.21-.8,2.85-.38,4.2.23.75,1.06,1.3,1.85,1.05s1.3-1.04,1.05-1.85h0Z"/>
          </g>
          <g>
            <path class="cls-3" d="M84.72,127.29c-2.32,1-2.65,3.18-3.83,5.26-.71,1.25-.96,3.86-.96,5.26,0,1.75,1.83,5.6,3.27,8.74-4.15-1.67-8.57-3.57-10.8-7.18-1.68-2.72-1.83-6.09-.91-9.1.59-1.92,1.74-6.5,2.7-7.37,2.02-1.85,7.74,4.35,10.53,4.39,8.13.12,16.67.21,24.81.08,2.04-.03,4.1-.08,6.06-.61,3-.82,5.48-2.73,7.85-4.61,5.1-4.05,10.11-8.19,14.95-12.49.99-.88,2-1.79,2.6-2.93.83-1.55.84-3.35.77-5.07-.13-3.54-.5-7.08-1.09-10.58-.35-2.04-.81-4.15-2.17-5.79-1.29-1.56-3.25-2.53-5.18-3.39-20.96-9.32-46.72-10.84-67.35-.92-2.25,1.08-4.52,2.37-5.82,4.37-1.01,1.55-1.34,3.38-1.63,5.16-.49,3.07-.9,6.14-1.22,9.23-.21,2.02-.39,4.07.02,6.07.72,3.51,3.22,6.55,6.24,8.81,3.03,2.25,7.11,5.85,10.63,7.4.7.31,1.37.62,2.01.94"/>
            <path class="cls-2" d="M83.96,126c-1.84.87-2.78,2.46-3.6,4.24-.39.85-.88,1.67-1.2,2.55-.35.97-.49,2.01-.61,3.03-.47,4.15,1.67,7.83,3.35,11.49l1.69-2.2c-3.56-1.44-7.79-3.07-9.91-6.49s-.95-7.41.17-11.08c.33-1.09.69-2.79,1.39-3.57-.13.14-.27.05-.04.1-.02,0,.41.1.53.14.57.19,1.09.51,1.6.82,2.27,1.36,4.61,3.6,7.37,3.78,4.98.32,10.06.13,15.05.14,2.47,0,4.93,0,7.4-.03s4.99.02,7.44-.4c4.61-.79,8.21-3.94,11.74-6.78,3.89-3.12,7.73-6.31,11.49-9.6,1.58-1.38,3.43-2.76,4.44-4.64,1.12-2.09,1.05-4.5.93-6.79-.13-2.55-.38-5.09-.74-7.62-.31-2.2-.61-4.47-1.5-6.52-1.75-4.02-5.96-5.61-9.75-7.15-4.07-1.66-8.27-3.02-12.55-4.07-17.06-4.19-35.61-3.62-51.79,3.58-3.9,1.74-7.77,3.81-9.16,8.14-.71,2.22-.92,4.64-1.24,6.95-.35,2.53-.7,5.07-.87,7.62-.3,4.55,1.15,8.51,4.3,11.8,1.44,1.5,3.15,2.69,4.78,3.97s3.33,2.63,5.08,3.83,3.7,2.1,5.65,3.05c1.73.84,3.25-1.74,1.51-2.59-1.88-.92-3.74-1.75-5.48-2.93s-3.43-2.52-5.1-3.83c-3.06-2.4-6.32-4.8-7.42-8.74-.65-2.32-.33-4.79-.07-7.14.28-2.55.62-5.09,1.02-7.62.32-2.04.6-4.26,2-5.88,1.32-1.53,3.22-2.47,5.02-3.33,15.47-7.39,33.65-8.06,50.16-4.17,4.15.98,8.23,2.25,12.2,3.81,3.66,1.44,8.1,2.83,9.35,6.98.64,2.12.9,4.39,1.15,6.58.28,2.43.5,4.9.5,7.35,0,1.1-.08,2.23-.59,3.23-.48.94-1.3,1.66-2.07,2.36-1.74,1.57-3.53,3.1-5.31,4.62-3.69,3.13-7.4,6.27-11.27,9.18-1.66,1.25-3.45,2.44-5.45,3.06-2.33.72-4.82.66-7.24.69-4.86.06-9.73.05-14.59,0-2.38-.02-4.77-.05-7.15-.08-1.65-.02-2.42-.05-3.84-.88-2.19-1.3-4.39-3.39-6.98-3.81-3.14-.5-4,2.96-4.72,5.3-1.08,3.51-2.2,7.03-1.23,10.71,1.04,3.95,4.18,6.66,7.67,8.5,1.71.9,3.51,1.64,5.31,2.36,1.35.55,2.17-1.16,1.69-2.2-1.33-2.89-3.26-6.03-3.01-9.31.13-1.62.57-2.83,1.25-4.28s1.18-2.89,2.73-3.63c1.74-.83.22-3.41-1.51-2.59h0Z"/>
          </g>
          <text class="cls-4" transform="translate(48.82 168.55)"><tspan x="0" y="0">SKAL</tspan><tspan class="cls-6" x="54.67" y="0">D</tspan><tspan x="72.02" y="0">YR</tspan></text>
          <circle class="cls-7" cx="100" cy="84" r="65"/>
          <line class="cls-7" x1="146.94" y1="39.09" x2="53.57" y2="130.09"/>
        </g>
        <g class="cls-8">
          <circle class="cls-2" cx="100" cy="100" r="100"/>
        </g>
      </g>
    </g>
  </g>
</svg>