<?xml version="1.0" encoding="UTF-8"?>
<svg id="Layer_2" data-name="Layer 2" xmlns="http://www.w3.org/2000/svg" viewBox="0 0 200 200">
  <defs>
    <style>
      .cls-1 {
        fill: #d75035;
      }

      .cls-1, .cls-2, .cls-3 {
        stroke-width: 0px;
      }

      .cls-2 {
        fill: #f2e9d0;
      }

      .cls-3 {
        fill: #803020;
      }
    </style>
  </defs>
  <g id="Circles">
    <g>
      <circle class="cls-1" cx="100" cy="100" r="99"/>
      <path class="cls-3" d="M100,2c54.04,0,98,43.96,98,98s-43.96,98-98,98S2,154.04,2,100,45.96,2,100,2M100,0C44.77,0,0,44.77,0,100s44.77,100,100,100,100-44.77,100-100S155.23,0,100,0h0Z"/>
    </g>
  </g>
  <g id="Ur">
    <g>
      <ellipse class="cls-3" cx="99.75" cy="100" rx="73.25" ry="72.5"/>
      <path class="cls-2" d="M99.75,30c39.01,0,70.75,31.4,70.75,70s-31.74,70-70.75,70S29,138.6,29,100,60.74,30,99.75,30M99.75,25c-41.84,0-75.75,33.58-75.75,75s33.91,75,75.75,75,75.75-33.58,75.75-75S141.59,25,99.75,25h0Z"/>
    </g>
    <path class="cls-2" d="M96.5,41.5c.67,19.33-.67,38.67,0,58,.13,3.85,6.13,3.87,6,0-.67-19.33.67-38.67,0-58-.13-3.85-6.13-3.87-6,0h0Z"/>
    <path class="cls-2" d="M97.38,101.62c8.86,9.38,18.28,18.21,27.14,27.59,2.66,2.81,6.89-1.44,4.24-4.24-8.86-9.38-18.28-18.21-27.14-27.59-2.66-2.81-6.89,1.44-4.24,4.24h0Z"/>
  </g>
</svg>