<?xml version="1.0" encoding="UTF-8"?>
<svg id="Layer_2" data-name="Layer 2" xmlns="http://www.w3.org/2000/svg" viewBox="0 0 200 200">
  <defs>
    <style>
      .cls-1 {
        fill: #d75035;
      }

      .cls-1, .cls-2, .cls-3 {
        stroke-width: 0px;
      }

      .cls-4 {
        font-family: OptimaLTPro-Bold, 'Optima LT Pro';
        font-size: 24px;
        font-weight: 700;
      }

      .cls-4, .cls-2 {
        fill: #f2e9d0;
      }

      .cls-3 {
        fill: #803020;
      }
    </style>
  </defs>
  <g id="Circles">
    <g>
      <circle class="cls-1" cx="100" cy="100" r="99"/>
      <path class="cls-3" d="M100,2c54.04,0,98,43.96,98,98s-43.96,98-98,98S2,154.04,2,100,45.96,2,100,2M100,0C44.77,0,0,44.77,0,100s44.77,100,100,100,100-44.77,100-100S155.23,0,100,0h0Z"/>
    </g>
  </g>
  <g id="Vegansk">
    <g>
      <path class="cls-3" d="M99.94,26.16c-2.1-2.33-4.58-4.48-5.63-7.43.98,7.87-2.6,15.49-5.93,22.69-3.33,7.19-6.57,15.08-4.88,22.83,2.28,10.48,13,17.82,14.39,28.46l1.2,1.87c2.14-4.21,4.29-8.41,6.43-12.62,1.64-3.22,3.29-6.47,4.25-9.95.97-3.56,1.2-7.28,1.21-10.97.03-12.48-2.68-25.61-11.03-34.88Z"/>
      <path class="cls-2" d="M101,25.1c-1.9-2.09-4.22-4.06-5.25-6.77-.55-1.44-3.15-1.42-2.95.4,1.47,13-8.46,23.65-10.75,35.94-1.05,5.6-.33,11,2.27,16.08,2.23,4.37,5.39,8.16,8.01,12.29,1.43,2.25,2.72,4.6,3.48,7.17.31,1.05.32,2.42.84,3.36.34.61.76,1.18,1.14,1.77.57.89,2.05,1.05,2.59,0,2.52-4.94,5.09-9.87,7.55-14.84s3.97-9.52,4.37-14.84c.7-9.11-.28-18.84-3.5-27.43-1.81-4.82-4.37-9.28-7.8-13.13-1.29-1.44-3.4.68-2.12,2.12,5.78,6.49,8.72,14.91,9.92,23.41.62,4.35.79,8.79.61,13.18-.21,5.12-1.44,9.76-3.67,14.36-2.55,5.26-5.29,10.44-7.95,15.65h2.59c-.32-.5-.69-.98-.97-1.5-.36-.69-.37-1.7-.61-2.58-.62-2.25-1.62-4.39-2.78-6.4-2.41-4.2-5.54-7.93-8-12.09-2.77-4.68-4.07-9.66-3.2-15.11.99-6.14,3.86-11.71,6.38-17.31,2.84-6.31,5.4-13.05,4.6-20.1l-2.95.4c1.24,3.26,3.72,5.57,6.02,8.1,1.3,1.43,3.42-.7,2.12-2.12Z"/>
    </g>
    <g>
      <path class="cls-3" d="M141.85,91.7c-3.49-1.07-7.02-2.09-10.64-2.61-4.23-.61-8.93.68-12.82,2.3-5.34,2.22-15.18,7.76-19.89,11.12,3.91.23,8.61,6.43,11.16,9.41,4.78,5.6,13.35,7.55,20.09,4.59,3.83-1.69,6.9-4.69,10.47-6.87,5.33-3.25,11.58-4.57,17.41-6.81,6.14-2.36,7.13-4.25,9.87-10.32-3.77.08-22.1.28-25.65-.8Z"/>
      <path class="cls-2" d="M142.25,90.25c-4.48-1.37-9.32-3-14.06-2.8-4.21.18-8.26,1.57-12.07,3.3-6.36,2.9-12.67,6.41-18.38,10.46-1.24.88-.76,2.66.76,2.8,2.31.21,4.42,2.56,5.9,4.12,1.71,1.81,3.17,3.86,4.91,5.63,3.83,3.91,9.51,5.96,14.94,5.57,2.87-.2,5.6-1.06,8.1-2.48,2.79-1.59,5.22-3.73,7.91-5.48,5.73-3.72,12.54-4.92,18.77-7.51,2.24-.93,4.41-2.06,6.01-3.93s2.69-4.36,3.75-6.68c.45-.99-.06-2.28-1.3-2.26-4.25.08-8.51.09-12.76.04-2.54-.03-5.07-.09-7.61-.23-1.72-.09-3.36-.11-4.89-.56-1.86-.54-2.65,2.35-.8,2.89,1.65.48,3.48.53,5.19.64,2.6.16,5.2.22,7.8.25,4.35.06,8.7.05,13.05-.03l-1.3-2.26c-.9,1.99-1.76,4.16-3.13,5.89-1.19,1.51-2.84,2.46-4.58,3.22-5.86,2.59-12.26,3.72-17.91,6.83-5.22,2.87-9.42,7.84-15.62,8.59-5.14.62-10.54-1.28-14.02-5.15-1.83-2.04-3.46-4.22-5.43-6.13s-4.23-3.74-7.03-3.99l.76,2.8c5.48-3.88,11.49-7.21,17.56-10.07,3.42-1.62,7.13-3,10.94-3.25,4.62-.3,9.34,1.34,13.7,2.67,1.85.57,2.64-2.33.8-2.89Z"/>
    </g>
    <g>
      <path class="cls-3" d="M92.17,99.37c-1.3-5.41-5.13-10.15-10.14-12.55-6.91-3.3-15.04-2.1-22.63-3.17-4.06-.57-7.98-1.8-11.89-3.03-3.85-1.21-8.15-1.92-12-3.13,2.05,6.81,5.77,15.42,11.31,19.87,2.22,1.78,4.82,3,7.44,4.11,7.64,3.22,16.32,5.6,24.11,2.78,4.39-1.59,9.47-4.98,14.14-4.76l-.33-.13Z"/>
      <path class="cls-2" d="M93.61,98.97c-1.94-7.72-8.15-13.43-15.85-15.18-4.24-.96-8.62-.96-12.94-1.17-4.74-.23-9.23-1.1-13.77-2.46-2.45-.74-4.87-1.51-7.36-2.11-2.61-.63-5.24-1.2-7.81-2-1.08-.33-2.17.77-1.85,1.85,2.47,8.13,6.29,17.25,13.72,22.01,4.22,2.7,9.31,4.56,14.13,5.84s10.19,1.81,15.17.49,9.89-5.38,15.42-5.23c1.8.05,1.89-2.37.4-2.95l-.33-.13c-1.8-.7-2.58,2.2-.8,2.89l.33.13.4-2.95c-4.56-.12-8.67,2.29-12.71,4.07-4.48,1.97-9.22,2.35-14.02,1.47s-9.67-2.64-14.07-4.86c-3.92-1.98-6.82-4.88-9.12-8.6-2.49-4.03-4.26-8.46-5.63-12.98l-1.85,1.85c4.18,1.29,8.5,2.04,12.68,3.34s8.48,2.55,12.91,3.03c7.88.86,16.84-.47,23.58,4.61,3.22,2.43,5.48,5.94,6.45,9.84.47,1.87,3.36,1.08,2.89-.8Z"/>
    </g>
    <path class="cls-2" d="M100.1,103.95c4.93,1.59,10.73.69,15.72-.16,6.39-1.09,12.66-3.61,19.24-2.75,1.91.25,1.89-2.75,0-3-6.5-.84-12.71,1.52-19.02,2.68-2.63.48-5.28.83-7.95.96-2.4.11-4.89.12-7.19-.62-1.84-.59-2.63,2.3-.8,2.89h0Z"/>
    <path class="cls-2" d="M91.1,96.67c-3.77-3.18-8.46-4.47-13.3-4.85-5.57-.44-11.25.1-16.75,1-1.9.31-1.09,3.2.8,2.89,4.98-.81,10.1-1.24,15.15-.94,4.24.25,8.66,1.22,11.99,4.03,1.47,1.24,3.6-.87,2.12-2.12h0Z"/>
    <path class="cls-2" d="M100.95,90.1c-1.96-6-2.64-12.58-2.02-18.86.71-7.2,2.52-14.22.46-21.39-.53-1.85-3.43-1.06-2.89.8,2.06,7.14-.07,14.21-.64,21.38-.5,6.28.24,12.88,2.19,18.87.6,1.83,3.5,1.04,2.89-.8h0Z"/>
    <path class="cls-2" d="M96.99,94.12c-.31,7.83-5.07,14.77-5.05,22.63.02,6.52,3.86,12.23,6.11,18.15.68,1.79,3.58,1.01,2.89-.8-1.23-3.25-2.76-6.36-4.13-9.55-1.11-2.6-1.92-5.3-1.86-8.15.07-3.75,1.4-7.34,2.56-10.87,1.22-3.72,2.33-7.47,2.48-11.41.08-1.93-2.92-1.93-3,0h0Z"/>
    <text class="cls-4" transform="translate(45.99 168.05)"><tspan x="0" y="0">VEGANSK</tspan></text>
    <path class="cls-2" d="M49.68,142.01c24.25-6.5,49.92-7.62,74.65-3.22,6.97,1.24,13.85,2.91,20.61,4.99,1.85.57,2.64-2.33.8-2.89-24.39-7.51-50.34-9.54-75.61-6.07-7.16.98-14.25,2.42-21.24,4.29-1.86.5-1.07,3.39.8,2.89h0Z"/>
  </g>
</svg>