<?xml version="1.0" encoding="UTF-8"?>
<svg xmlns="http://www.w3.org/2000/svg" viewBox="0 0 200 200">
  <defs>
    <style>
      .cls-1 {
        fill: #d75035;
      }

      .cls-1, .cls-2, .cls-3 {
        stroke-width: 0px;
      }

      .cls-4 {
        font-family: OptimaLTPro-Bold, 'Optima LT Pro';
        font-size: 24px;
        font-weight: 700;
      }

      .cls-4, .cls-2 {
        fill: #f2e9d0;
      }

      .cls-5 {
        isolation: isolate;
      }

      .cls-6 {
        letter-spacing: -.05em;
      }

      .cls-3 {
        fill: #803020;
      }

      .cls-7 {
        mix-blend-mode: saturation;
      }
    </style>
  </defs>
  <g class="cls-5">
    <g id="Layer_2" data-name="Layer 2">
      <g id="Circles">
        <g>
          <circle class="cls-1" cx="100" cy="100" r="99"/>
          <path class="cls-3" d="M100,2c54.04,0,98,43.96,98,98s-43.96,98-98,98S2,154.04,2,100,45.96,2,100,2M100,0C44.77,0,0,44.77,0,100s44.77,100,100,100,100-44.77,100-100S155.23,0,100,0h0Z"/>
        </g>
      </g>
      <g id="Vegetar">
        <text class="cls-4" transform="translate(48.74 168.54)"><tspan x="0" y="0">VEGE</tspan><tspan class="cls-6" x="58.68" y="0">T</tspan><tspan x="70.7" y="0">AR</tspan></text>
        <path class="cls-2" d="M46.31,141.05c10.2-8.31,23.35-12.06,36.33-12.67,14.44-.67,28.65,2.56,42.35,6.85,8.22,2.58,16.31,5.54,24.44,8.38,1.83.64,2.61-2.26.8-2.89-14.81-5.17-29.58-10.81-45.06-13.63-13.58-2.48-27.79-2.67-41.1,1.38-7.24,2.2-14,5.67-19.87,10.46-1.5,1.22.64,3.33,2.12,2.12h0Z"/>
        <g>
          <path class="cls-3" d="M109.5,109.5c11.8,1.73,19.86-12.28,20.06-22.31.49-24.89-20.69-47.48-43.56-54.47-.49-.15-.84-.33-1.3-.15.87,3.57,2.47,6.94,3.2,10.61.77,3.87,1.15,7.81,1.25,11.75.32,11.79-2.92,23.43.99,34.88,3.15,9.23,10.14,16.44,19.36,19.69"/>
          <path class="cls-2" d="M109.1,110.95c7.06.95,13.01-2.91,16.91-8.58s5.48-12.63,4.91-19.57c-1.3-15.93-10.73-30.31-23.07-40.07-3.53-2.79-7.29-5.26-11.3-7.31-1.94-.99-3.93-1.88-5.96-2.68-1-.39-2-.75-3.02-1.09-1.1-.36-2.12-.79-3.28-.52-.8.18-1.24,1.09-1.05,1.85.74,2.94,1.92,5.74,2.73,8.65.85,3.09,1.24,6.33,1.48,9.53.47,6.29-.1,12.51-.51,18.78-.41,6.32-.48,12.76,1.31,18.9,1.4,4.78,3.84,9.22,7.13,12.95,3.7,4.19,8.46,7.28,13.71,9.17,1.82.65,2.6-2.24.8-2.89-9.08-3.26-16.03-10.78-18.75-20.02-1.73-5.88-1.6-12.05-1.2-18.1.4-6.11.96-12.18.55-18.31-.23-3.39-.61-6.85-1.45-10.15s-2.1-6.15-2.9-9.3l-1.05,1.85c.5-.12,1.7.52,2.19.69.9.31,1.8.64,2.68.99,1.62.64,3.2,1.36,4.75,2.15,3.23,1.63,6.32,3.54,9.25,5.67,5.88,4.3,11.11,9.62,15.19,15.66,7.28,10.75,12.36,26.04,6.19,38.41-2.9,5.8-8.4,11.43-15.44,10.47-.81-.11-1.6.19-1.85,1.05-.2.7.25,1.74,1.05,1.85h0Z"/>
        </g>
        <path class="cls-2" d="M102.3,127.26c2.31-4.22,4.8-8.37,6.73-12.78s3.16-9.41,3.99-14.34c1.57-9.34,1.68-19.06-1.37-28.12-1.6-4.75-3.95-9.2-6.86-13.27-1.11-1.56-3.71-.06-2.59,1.51,4.91,6.89,8.07,14.78,8.74,23.25.39,4.88.11,9.83-.63,14.66-.7,4.56-1.63,9.2-3.34,13.5-1.95,4.91-4.74,9.46-7.28,14.08-.93,1.69,1.66,3.21,2.59,1.51h0Z"/>
        <g class="cls-7">
          <circle class="cls-2" cx="100" cy="100" r="100"/>
        </g>
      </g>
    </g>
  </g>
</svg>